<svg width="33" height="32" viewBox="0 0 33 32" fill="none" xmlns="http://www.w3.org/2000/svg">
<mask id="mask0_0_78" style="mask-type:luminance" maskUnits="userSpaceOnUse" x="-4" y="-3" width="41" height="42">
<path d="M-3.82421 -2.07735H36.4638V38.2107H-3.82421V-2.07735Z" fill="white"/>
</mask>
<g mask="url(#mask0_0_78)">
<path d="M5.73239 17.0108H8.669C9.01523 17.0108 9.2985 16.7275 9.2985 16.3813V14.3725C9.2985 14.0263 9.01523 13.743 8.669 13.743H5.73239C5.38616 13.743 5.10289 14.0263 5.10289 14.3725V16.3813C5.10289 16.7275 5.38616 17.0108 5.73239 17.0108Z" fill="#E71316"/>
<path d="M11.8248 17.0108H14.7614C15.1076 17.0108 15.3909 16.7275 15.3909 16.3813V14.3725C15.3909 14.0263 15.1076 13.743 14.7614 13.743H11.8248C11.4785 13.743 11.1953 14.0263 11.1953 14.3725V16.3813C11.1953 16.7275 11.4785 17.0108 11.8248 17.0108Z" fill="#E71316"/>
<path d="M17.9171 17.0108H20.8544C21.2006 17.0108 21.4839 16.7275 21.4839 16.3813V14.3725C21.4839 14.0263 21.2006 13.743 20.8544 13.743H17.9171C17.5709 13.743 17.2876 14.0263 17.2876 14.3725V16.3813C17.2876 16.7275 17.5709 17.0108 17.9171 17.0108Z" fill="#E71316"/>
<path d="M23.9702 17.0108H26.9068C27.253 17.0108 27.5363 16.7275 27.5363 16.3813V14.3725C27.5363 14.0263 27.253 13.743 26.9068 13.743H23.9702C23.624 13.743 23.3407 14.0263 23.3407 14.3725V16.3813C23.3407 16.7275 23.624 17.0108 23.9702 17.0108Z" fill="#E71316"/>
<path d="M5.73239 22.0743H8.669C9.01523 22.0743 9.2985 21.791 9.2985 21.4448V19.4361C9.2985 19.0898 9.01523 18.8066 8.669 18.8066H5.73239C5.38616 18.8066 5.10289 19.0898 5.10289 19.4361V21.4448C5.10289 21.791 5.38616 22.0743 5.73239 22.0743Z" fill="#E71316"/>
<path d="M11.8248 22.0743H14.7614C15.1076 22.0743 15.3909 21.791 15.3909 21.4448V19.4361C15.3909 19.0898 15.1076 18.8066 14.7614 18.8066H11.8248C11.4785 18.8066 11.1953 19.0898 11.1953 19.4361V21.4448C11.1953 21.791 11.4785 22.0743 11.8248 22.0743Z" fill="#E71316"/>
<path d="M17.9171 22.0743H20.8544C21.2006 22.0743 21.4839 21.791 21.4839 21.4448V19.4361C21.4839 19.0898 21.2006 18.8066 20.8544 18.8066H17.9171C17.5709 18.8066 17.2876 19.0898 17.2876 19.4361V21.4448C17.2876 21.791 17.5709 22.0743 17.9171 22.0743Z" fill="#E71316"/>
<path d="M23.9702 22.0743H26.9068C27.253 22.0743 27.5363 21.791 27.5363 21.4448V19.4361C27.5363 19.0898 27.253 18.8066 26.9068 18.8066H23.9702C23.624 18.8066 23.3407 19.0898 23.3407 19.4361V21.4448C23.3407 21.791 23.624 22.0743 23.9702 22.0743Z" fill="#E71316"/>
<path d="M5.73239 27.1374H8.669C9.01523 27.1374 9.2985 26.8541 9.2985 26.5079V24.4991C9.2985 24.1529 9.01523 23.8696 8.669 23.8696H5.73239C5.38616 23.8696 5.10289 24.1529 5.10289 24.4991V26.5079C5.10289 26.8541 5.38616 27.1374 5.73239 27.1374Z" fill="#E71316"/>
<path d="M11.8248 27.1374H14.7614C15.1076 27.1374 15.3909 26.8541 15.3909 26.5079V24.4991C15.3909 24.1529 15.1076 23.8696 14.7614 23.8696H11.8248C11.4785 23.8696 11.1953 24.1529 11.1953 24.4991V26.5079C11.1953 26.8541 11.4785 27.1374 11.8248 27.1374Z" fill="#E71316"/>
<path d="M17.9171 27.1374H20.8544C21.2006 27.1374 21.4839 26.8541 21.4839 26.5079V24.4991C21.4839 24.1529 21.2006 23.8696 20.8544 23.8696H17.9171C17.5709 23.8696 17.2876 24.1529 17.2876 24.4991V26.5079C17.2876 26.8541 17.5709 27.1374 17.9171 27.1374Z" fill="#E71316"/>
<path d="M23.9702 27.1374H26.9068C27.253 27.1374 27.5363 26.8541 27.5363 26.5079V24.4991C27.5363 24.1529 27.253 23.8696 26.9068 23.8696H23.9702C23.624 23.8696 23.3407 24.1529 23.3407 24.4991V26.5079C23.3407 26.8541 23.624 27.1374 23.9702 27.1374Z" fill="#E71316"/>
<path d="M24.1549 5.98394C24.2524 5.98394 24.3513 5.97261 24.4501 5.94869C25.1262 5.78691 25.5423 5.10705 25.3799 4.43096C25.1545 3.48923 25.1545 2.49462 25.3799 1.55289C25.5423 0.876806 25.1262 0.197575 24.4501 0.035164C24.3513 0.0112431 24.2524 -8.78895e-05 24.1549 -8.78895e-05C23.5877 -8.78895e-05 23.0709 0.387684 22.9324 0.964935C22.6138 2.29129 22.6138 3.69256 22.9324 5.01892C23.0702 5.59617 23.5864 5.98394 24.1549 5.98394Z" fill="#E71316"/>
<path d="M8.73211 5.98394C8.82968 5.98394 8.92852 5.97261 9.02735 5.94869C9.70343 5.78691 10.1195 5.10705 9.95712 4.43096C9.73176 3.48923 9.73176 2.49462 9.95712 1.55289C10.1195 0.876806 9.70343 0.197575 9.02735 0.035164C8.92852 0.0112431 8.82968 -8.78895e-05 8.73211 -8.78895e-05C8.1643 -8.78895e-05 7.64811 0.387684 7.50962 0.964935C7.19109 2.29129 7.19109 3.69256 7.50962 5.01892C7.64748 5.59617 8.16367 5.98394 8.73211 5.98394Z" fill="#E71316"/>
<path d="M30.1254 28.223C30.1254 28.9173 29.5613 29.482 28.8664 29.482H3.777C3.08266 29.482 2.518 28.9173 2.518 28.223V11.3914H30.1254V28.223ZM28.8664 4.14462H26.6058C26.76 4.79615 26.653 5.46909 26.3037 6.04067C25.9524 6.61415 25.3984 7.0164 24.7488 7.17252C24.5555 7.2191 24.3566 7.24302 24.1558 7.24302C22.9868 7.24302 21.9809 6.44859 21.7083 5.31234C21.6158 4.92772 21.5484 4.53743 21.5031 4.14462H11.1824C11.3373 4.79615 11.2303 5.46909 10.8803 6.04067C10.529 6.61415 9.97506 7.0164 9.32541 7.17252C9.13216 7.2191 8.9326 7.24302 8.73242 7.24302C7.56407 7.24302 6.5575 6.44859 6.28493 5.31234C6.19239 4.92772 6.12503 4.53743 6.07908 4.14462H3.777C1.69398 4.14462 0 5.8386 0 7.92162V28.223C0 30.306 1.69398 32 3.777 32H28.8664C30.9494 32 32.6434 30.306 32.6434 28.223V7.92162C32.6434 5.8386 30.9494 4.14462 28.8664 4.14462Z" fill="#E71316"/>
</g>
</svg>
