<svg width="147" height="32" viewBox="0 0 147 32" fill="none" xmlns="http://www.w3.org/2000/svg">
<path fill-rule="evenodd" clip-rule="evenodd" d="M14.5903 3.77126V0.685547H0.609375V3.80936H5.40937V17.3332H9.75223V3.77126H14.5903ZM68.3808 17.2951C68.2665 16.1903 68.1903 15.3522 68.1903 14.7427V9.14269C68.1903 6.81888 66.476 5.37126 64.2284 5.37126C62.5903 5.40936 61.1808 6.13317 60.3808 7.4284C59.8856 6.13317 58.476 5.44745 57.1427 5.44745C55.5427 5.44745 54.1713 5.98078 53.4094 7.4284L53.3332 5.71412H49.3713V17.2951H53.4856V10.2855C53.4856 9.90459 53.3332 7.92364 55.1998 7.92364C56.457 7.92364 56.7618 9.0665 56.7618 10.1713V17.257H60.8379V10.2855C60.8379 9.90459 60.6856 7.92364 62.5522 7.92364C63.8094 7.92364 64.1141 9.0665 64.1141 10.1713V17.257L68.3808 17.2951ZM48.457 9.10459V5.56174C46.6665 5.52364 45.3332 6.13317 44.7999 7.88555L44.7237 5.67602H40.6094C40.6856 6.6284 40.6856 7.88555 40.6856 8.64745V17.257H44.7999V12.1903C44.7999 10.2855 45.3713 9.10459 47.6189 9.0665C47.8856 9.0665 48.1522 9.0665 48.457 9.10459ZM75.4665 5.37126C71.6951 5.37126 69.2189 7.4665 69.2189 11.4665C69.2189 15.5808 71.6951 17.5998 75.4665 17.5998C79.2379 17.5998 81.7141 15.5427 81.7141 11.4665C81.676 7.4665 79.1999 5.37126 75.4665 5.37126ZM75.4665 7.80936C77.1808 7.80936 77.5237 9.59983 77.5237 11.3903C77.5237 13.5236 77.1427 15.1617 75.4665 15.1617C73.7903 15.1617 73.4094 13.4855 73.4094 11.3903C73.4094 9.56174 73.7141 7.77126 75.4665 7.80936ZM27.1618 17.2951C27.0475 16.1903 27.0094 15.3903 27.0094 14.7427V9.14269C27.0094 6.81888 25.2951 5.37126 23.0094 5.37126C22.3237 5.37126 21.6379 5.48555 21.0665 5.75221C20.5332 6.01888 20.0379 6.36174 19.5808 6.93317V0.685547H15.5427V17.2951H19.657V10.2855C19.657 9.90459 19.5046 7.92364 21.3713 7.92364C22.6665 7.92364 22.9332 9.0665 22.9332 10.1713V17.257L27.1618 17.2951ZM39.6951 12.2665C39.7332 8.11412 38.476 5.37126 33.8284 5.37126C30.1713 5.37126 27.9618 7.61888 27.9618 11.1617C27.9618 15.5046 29.5237 17.5998 34.0189 17.5998C35.4284 17.5998 36.6856 17.2951 37.5998 16.6475C38.6284 15.9617 39.4284 14.9332 39.5427 13.4855H35.7332C35.6189 14.5522 35.0094 15.276 33.7903 15.276C32.2284 15.276 31.8856 13.7903 31.9237 12.3427H39.6951V12.2665ZM35.7713 10.057H31.9618C32.0379 8.83793 32.3427 7.58079 33.8665 7.50459C34.5522 7.4665 35.0094 7.80936 35.3141 8.30459C35.657 8.79983 35.7713 9.44745 35.7713 10.057Z" fill="#EBEBEC"/>
<path fill-rule="evenodd" clip-rule="evenodd" d="M145.753 8.87603V5.33318C143.963 5.29508 142.629 5.9046 142.096 7.65698L142.02 5.63794H137.906C137.982 6.59032 137.982 7.84746 137.982 8.60937V17.2189H142.096V12.1903C142.096 10.2856 142.667 8.91413 144.915 8.83794C145.182 8.87603 145.448 8.87603 145.753 8.87603ZM124.458 17.2951C124.344 16.1903 124.306 15.3903 124.306 14.7427V9.1427C124.306 6.81889 122.591 5.37127 120.306 5.37127C119.62 5.37127 119.01 5.48556 118.401 5.75222C117.867 6.01889 117.334 6.36175 116.877 6.93318V0.685556H112.763V17.2951H116.877V10.2856C116.877 9.9046 116.725 7.92365 118.591 7.92365C119.886 7.92365 120.153 9.06651 120.153 10.1713V17.257L124.458 17.2951ZM111.772 13.8284C111.772 12.0379 110.82 11.1617 109.525 10.6665C107.048 9.79032 105.22 9.75222 105.22 8.83794C105.22 8.15222 105.601 7.77127 106.286 7.77127C106.82 7.77127 107.163 7.92365 107.391 8.15222C107.582 8.38079 107.696 8.76175 107.696 9.25698H111.582C111.506 6.20937 109.106 5.40937 106.477 5.40937C104.229 5.40937 101.334 6.20937 101.334 8.99032C101.334 13.0284 107.887 11.9998 107.887 14.1332C107.887 14.8951 107.277 15.2379 106.477 15.2379C106.02 15.2379 105.639 15.0094 105.41 14.6665C105.182 14.3617 105.106 13.9427 105.144 13.5237H101.22C101.144 16.9903 103.696 17.5998 106.553 17.5998C109.22 17.5998 111.772 16.6475 111.772 13.8284ZM136.953 12.2665C136.991 8.11413 135.734 5.37127 131.087 5.37127C127.429 5.37127 125.22 7.61889 125.22 11.1617C125.22 15.5046 126.744 17.5998 131.277 17.5998C132.687 17.5998 133.944 17.2951 134.858 16.6475C135.887 15.9617 136.687 14.9332 136.801 13.4856H132.953C132.839 14.5522 132.229 15.276 131.01 15.276C129.448 15.276 129.106 13.7903 129.144 12.3427H136.991V12.2665H136.953ZM133.106 10.057H129.296C129.372 8.83794 129.677 7.58079 131.201 7.5046C131.886 7.46651 132.344 7.80937 132.648 8.3046C132.953 8.79984 133.106 9.44746 133.106 10.057ZM100.229 17.2951V5.67603H96.1151V17.257L100.229 17.2951ZM94.8579 3.69508L95.8103 0.647461H84.8008V17.257H89.1436V10.7427H92.6484L93.6008 7.69508H89.1436V3.69508H94.8579ZM100.229 3.69508L101.22 0.647461H97.1817L96.1913 3.69508H100.229Z" fill="#EBEBEC"/>
<path fill-rule="evenodd" clip-rule="evenodd" d="M38.1712 31.5429V22.1715H39.6569V31.581H38.1712V31.5429ZM139.276 31.6953C136.152 31.6953 133.79 29.9429 133.79 26.8953C133.79 23.8095 136.419 21.9048 139.39 21.9048C140.457 21.9048 141.6 22.2476 142.362 22.7429L141.6 23.6572C140.952 23.2762 140.228 23.0476 139.428 23.0476C138.286 23.0476 137.181 23.3905 136.457 24.1905C135.847 24.8762 135.505 25.7143 135.505 26.9334C135.505 28.2667 135.924 28.9905 136.609 29.6762C137.333 30.4 138.438 30.5905 139.505 30.5905C140.381 30.5905 141.219 30.2857 141.905 29.9048L142.628 30.781C141.828 31.3143 140.533 31.6953 139.276 31.6953ZM123.505 31.5429V22.1715H124.99V31.581H123.505V31.5429ZM89.5236 23.2762H86.0189V31.581H84.5712V23.2762H81.0665V22.1334H89.7141L89.5236 23.2762ZM11.3141 31.2C10.5903 31.5429 9.71408 31.7334 8.64742 31.7334C7.31408 31.7334 5.94265 31.4286 4.83789 30.8953L5.44741 29.8286C6.55218 30.3619 7.58075 30.6286 8.72361 30.6286C9.48551 30.6286 9.98075 30.5143 10.4379 30.2476C10.9712 29.9429 11.276 29.5619 11.276 29.0286C11.276 28.2286 10.6665 27.7334 9.21884 27.4286L7.69503 27.0857C6.17122 26.7429 5.21884 25.7905 5.21884 24.6476C5.21884 23.0476 6.78075 21.9048 9.06646 21.9048C10.3998 21.9048 11.7712 22.2476 12.6855 22.8191L11.9998 23.8095C11.0855 23.3143 10.1331 23.0476 9.14265 23.0476C7.80932 23.0476 6.85694 23.581 6.85694 24.4572C6.85694 25.1429 7.42837 25.5619 8.72361 25.8667L10.1331 26.2095C10.9331 26.4 11.7712 26.7429 12.2284 27.1619C12.6855 27.581 12.9522 28.2286 12.9522 28.8381C12.9903 29.7905 12.3807 30.7048 11.3141 31.2ZM71.6189 31.5429L67.8855 26.5143C67.1998 25.5619 65.9808 23.7334 65.9808 23.7334C65.9808 23.7334 66.095 25.3334 66.1331 26.7048L66.1712 31.5429H64.6855V22.1715H66.476L70.2474 27.3143C70.9712 28.3048 71.9998 29.9048 71.9998 29.9048C71.9998 29.9048 71.7712 28.1524 71.7712 26.9334L71.7331 22.2095H73.2188V31.6191L71.6189 31.5429ZM97.4093 31.5429V22.1715H98.895V31.581H97.4093V31.5429ZM115.276 23.2762H110.095V26.0572H114.476V27.1619H110.095V31.581H108.609V22.1715H115.466L115.276 23.2762ZM49.4093 31.5429V22.1715H56.3808L56.1903 23.3143H50.9331V26.1334H55.3903V27.2762H50.9331V30.4762H56.5331V31.6191H49.4093V31.5429ZM26.5522 31.6953C23.4284 31.6953 21.0665 29.9429 21.0665 26.8953C21.0665 23.8095 23.695 21.9048 26.6665 21.9048C27.7331 21.9048 28.876 22.2476 29.6379 22.7429L28.876 23.6572C28.2284 23.2762 27.5046 23.0476 26.7046 23.0476C25.5617 23.0476 24.4569 23.3905 23.695 24.1905C23.0855 24.8762 22.7427 25.7143 22.7427 26.9334C22.7427 28.2667 23.1617 28.9905 23.8474 29.6762C24.5712 30.4 25.676 30.5905 26.7427 30.5905C27.6188 30.5905 28.4569 30.2857 29.1427 29.9048L29.8665 30.781C29.1046 31.3143 27.8093 31.6953 26.5522 31.6953Z" fill="#EBEBEC"/>
</svg>
