<svg width="192" height="75" viewBox="0 0 192 75" fill="none" xmlns="http://www.w3.org/2000/svg">
<g clip-path="url(#clip0_0_57)">
<path d="M18.6368 55.9274C18.6368 60.4448 16.57 65.2152 11.5118 65.2152C5.85194 65.2152 3.87229 60.4448 3.87229 55.9274C3.87229 51.41 5.85194 46.6483 11.5118 46.6483C16.57 46.6483 18.6368 51.4187 18.6368 55.9274ZM21.2967 55.9274C21.2967 49.7704 18.131 44.4158 11.5118 44.4158C8.25891 44.4158 5.09322 46.0553 3.9595 49.1774H3.87229V36.6978H1.2124V66.8111H3.66298V62.6774H3.75019C4.42037 64.1562 5.5176 65.4006 6.90077 66.2507C8.28394 67.1008 9.8898 67.5177 11.5118 67.4477C18.131 67.4477 21.2967 62.0931 21.2967 55.9274Z" fill="#1C1C4C"/>
<path d="M24.2529 66.8109H26.9128V45.0435H24.2529V66.8109Z" fill="#1C1C4C"/>
<path d="M47.6774 55.9272C47.6774 60.5754 45.1484 65.2149 40.0466 65.2149C34.9449 65.2149 32.4071 60.5754 32.4071 55.9272C32.4071 51.2789 34.9362 46.6481 40.0466 46.6481C45.1571 46.6481 47.6774 51.2876 47.6774 55.9272ZM50.2937 55.9272C50.2937 49.6917 46.6658 44.4155 40.003 44.4155C33.3402 44.4155 29.7036 49.6481 29.7036 55.9272C29.7036 62.2062 33.3315 67.4475 40.003 67.4475C46.6745 67.4475 50.2937 62.2149 50.2937 55.9272Z" fill="#1C1C4C"/>
<path d="M69.1482 51.4533C68.9825 46.7266 65.5203 44.4766 61.1773 44.4766C57.3401 44.4766 52.9971 46.1597 52.9971 50.5812C52.9971 54.2963 55.6133 55.4737 59.1017 56.4068L62.5203 57.1655C64.9273 57.7585 67.2907 58.5957 67.2907 61.1248C67.2907 64.1684 63.8023 65.2673 61.343 65.2673C57.7936 65.2673 55.1424 63.4097 54.9244 59.8254H52.3081C52.7267 65.1364 56.1889 67.4998 61.2471 67.4998C65.3023 67.4998 69.968 65.6859 69.968 60.9591C69.968 57.1655 66.8023 55.3952 63.7587 54.9242L60.1744 54.0696C58.3604 53.5987 55.6657 52.7614 55.6657 50.3981C55.6657 47.5725 58.4476 46.6394 60.811 46.6394C63.8459 46.6394 66.375 48.1132 66.5058 51.4097L69.1482 51.4533Z" fill="#1C1C4C"/>
<path d="M78.7415 66.7324L77.8084 69.2179C76.9363 71.2411 76.3781 72.6365 74.0147 72.6365C73.4048 72.6245 72.7974 72.5545 72.2008 72.4272V74.6597C72.8599 74.8362 73.5428 74.9068 74.2241 74.869C77.5554 74.869 78.445 73.8138 79.9624 70.151L89.4159 45.0435H86.7996L80.0932 63.6103L72.9159 45.0435H70.0903L78.8113 66.7324H78.7415Z" fill="#1C1C4C"/>
<path d="M106.491 51.4533C106.326 46.7266 102.864 44.4766 98.5205 44.4766C94.6746 44.4766 90.3315 46.1597 90.3315 50.5812C90.3315 54.2963 92.9478 55.4737 96.4362 56.4068L99.8548 57.1655C102.253 57.7585 104.616 58.5957 104.616 61.1248C104.616 64.1684 101.128 65.2673 98.6687 65.2673C95.128 65.2673 92.4682 63.4097 92.2589 59.8254H89.6426C90.0699 65.1364 93.5234 67.4998 98.5903 67.4998C102.637 67.4998 107.311 65.6859 107.311 60.9591C107.311 57.1655 104.145 55.3952 101.111 54.9242L97.5089 54.0696C95.6949 53.5987 92.9914 52.7614 92.9914 50.3981C92.9914 47.5725 95.7734 46.6394 98.1368 46.6394C101.18 46.6394 103.709 48.1132 103.832 51.4097L106.491 51.4533Z" fill="#1C1C4C"/>
<path d="M111.532 40.8923V45.0434H107.738V47.2847H111.532V62.1714C111.532 65.8865 112.709 67.0638 116.259 67.0638C117.061 67.0638 117.82 66.9853 118.622 66.9853V64.7091C117.863 64.7887 117.1 64.8295 116.337 64.8312C114.445 64.7091 114.192 63.6888 114.192 61.9621V47.2847H118.605V45.0434H114.174V39.4795L111.514 40.8923H111.532Z" fill="#1C1C4C"/>
<path d="M136.125 54.2528H122.032C122.459 50.2847 124.858 46.4911 129.209 46.4911C133.561 46.4911 135.994 50.2499 136.125 54.2528ZM129.209 44.2586C122.285 44.2586 119.381 50.0318 119.381 55.7702C119.381 61.9708 122.285 67.2906 129.209 67.2906C134.695 67.2906 137.555 64.4214 138.698 59.4417H136.081C135.209 62.7295 133.134 65.0057 129.253 65.0057C124.142 65.0057 122.119 60.3225 122.076 56.4417H138.829C139.038 50.3371 136.256 44.2324 129.236 44.2324L129.209 44.2586Z" fill="#1C1C4C"/>
<mask id="mask0_0_57" style="mask-type:luminance" maskUnits="userSpaceOnUse" x="0" y="0" width="192" height="75">
<path d="M191.459 0H0V74.8692H191.459V0Z" fill="white"/>
</mask>
<g mask="url(#mask0_0_57)">
<path d="M141.532 66.6541H144.148V54.5059C144.148 49.9535 146.05 46.4913 150.646 46.4913C154.021 46.4913 155.25 48.9419 155.207 51.8896V66.6541H157.823V54.3402C157.823 50.2849 159.131 46.4913 163.736 46.4913C167.529 46.4913 168.881 48.4361 168.881 52.0204V66.6541H171.541V51.8896C171.541 46.7442 169.09 44.2588 164.32 44.2588C162.877 44.2105 161.451 44.5884 160.221 45.3452C158.991 46.1021 158.012 47.2044 157.404 48.5146C156.602 45.6454 154.029 44.2588 151.16 44.2588C149.683 44.2033 148.221 44.5807 146.956 45.3445C145.69 46.1083 144.675 47.2253 144.035 48.5582H143.904V44.8867H141.462V66.689L141.532 66.6541Z" fill="#1C1C4C"/>
<path d="M190.7 51.2614C190.526 46.5347 187.073 44.2847 182.721 44.2847C178.884 44.2847 174.541 45.9678 174.541 50.3893C174.541 54.1044 177.157 55.2818 180.645 56.2149L184.064 56.9736C186.471 57.5579 188.834 58.4039 188.834 60.9329C188.834 63.9765 185.346 65.0666 182.887 65.0666C179.346 65.0666 176.686 63.2178 176.477 59.6248H173.86C174.279 64.9446 177.741 67.3079 182.799 67.3079C186.855 67.3079 191.52 65.494 191.52 60.7672C191.52 56.9736 188.355 55.2033 185.32 54.7323L181.77 53.93C179.956 53.4678 177.262 52.6219 177.262 50.2672C177.262 47.4329 180.043 46.5085 182.407 46.5085C185.442 46.5085 187.971 47.9823 188.102 51.2789L190.7 51.2614Z" fill="#1C1C4C"/>
<path d="M14.6424 22.7964C14.6424 25.8313 11.3459 26.9301 9.23547 26.9301C7.55233 26.9301 4.80523 26.2935 4.80523 24.1394C4.80523 21.6104 6.66279 20.8516 8.72965 20.5115C10.7965 20.1714 13.1599 20.1801 14.6424 19.2034V22.7964ZM21.8023 30.1743V26.8429C21.4134 26.908 21.0193 26.9372 20.625 26.9301C19.7529 26.9301 19.4826 26.4592 19.4826 25.2819V14.058C19.4826 9.4621 15.0087 7.73535 10.7616 7.73535C5.94767 7.73535 1.1686 9.37489 0.84593 14.9912H5.65116C5.86919 12.6278 7.76163 11.5028 10.4651 11.5028C12.4012 11.5028 14.9738 11.965 14.9738 14.4592C14.9738 17.2848 11.8953 16.901 8.44186 17.5377C4.36047 18.026 0 18.9156 0 24.3574C0 28.6133 3.5407 30.7237 7.46512 30.7237C10.0378 30.7237 13.1163 29.9214 15.0174 28.1074C15.4012 30.0958 16.7616 30.7237 18.7326 30.7237C19.7753 30.6744 20.8072 30.4897 21.8023 30.1743Z" fill="#1C1C4C"/>
</g>
<path d="M40.6394 19.247C40.6394 23.0493 38.9911 26.9301 34.6045 26.9301C30.7237 26.9301 28.4998 23.6336 28.4998 19.247C28.4998 14.6074 30.5667 11.529 34.6045 11.529C38.6423 11.529 40.6394 15.2877 40.6394 19.247ZM45.4533 19.3342C45.4533 12.9592 42.1132 7.73535 35.2411 7.73535C32.4591 7.73535 29.8428 8.79058 28.4911 11.276H28.4039V8.31965H23.8516V38.1888H28.6568V27.3051H28.7789C30.2963 29.7121 33.2963 30.7237 36.0783 30.7237C42.5318 30.7237 45.4882 25.1947 45.4882 19.3342H45.4533Z" fill="#1C1C4C"/>
<path d="M64.6833 19.247C64.6833 23.0493 63.0438 26.9301 58.6571 26.9301C54.7763 26.9301 52.5525 23.6336 52.5525 19.247C52.5525 14.6074 54.6193 11.529 58.6571 11.529C62.6949 11.529 64.6833 15.2877 64.6833 19.247ZM69.4973 19.3342C69.4973 12.9592 66.1659 7.73535 59.285 7.73535C56.5031 7.73535 53.8868 8.79058 52.535 11.276H52.4566V8.31965H47.8955V38.1888H52.7095V27.3051H52.788C54.3054 29.7121 57.3054 30.7237 60.0874 30.7237C66.5409 30.7237 69.4973 25.1947 69.4973 19.3342Z" fill="#1C1C4C"/>
<path d="M71.7036 30.1309H76.5088V0.00878906H71.7036V30.1309Z" fill="#1C1C4C"/>
<path d="M80.2236 30.1309H85.0289V8.31982H80.2236V30.1309Z" fill="#1C1C4C"/>
<path d="M103.352 17.3113H92.128C92.1175 16.5528 92.2585 15.7998 92.5426 15.0964C92.8268 14.3931 93.2484 13.7534 93.7827 13.215C94.3171 12.6766 94.9535 12.2502 95.6547 11.9607C96.3559 11.6713 97.1078 11.5246 97.8664 11.5293C101.111 11.5293 103.186 14.2677 103.352 17.3113ZM97.8664 7.71826C91.3693 7.71826 87.3228 13.0293 87.3228 19.2299C87.3228 25.9363 91.16 30.7066 97.9972 30.7066C102.759 30.7066 106.814 28.0904 107.861 23.2851H103.308C102.436 25.6834 100.779 26.913 97.9972 26.913C93.9855 26.913 92.128 23.8694 92.128 20.4595H108.14C108.942 13.9188 104.73 7.71826 97.8489 7.71826H97.8664Z" fill="#1C1C4C"/>
<path d="M127.422 19.186C127.422 22.9884 125.608 26.9128 121.317 26.9128C117.026 26.9128 115.282 23.1977 115.282 19.439C115.282 15.5233 116.887 11.5116 121.387 11.5116C125.093 11.5116 127.413 14.3808 127.413 19.186H127.422ZM132.07 30.1134V0H127.256V11.1453H127.169C125.695 8.74709 122.66 7.73547 119.913 7.73547C115.151 7.73547 110.468 11.2238 110.468 19.0727C110.468 25.6134 113.8 30.7151 120.672 30.7151C123.419 30.7151 126.157 29.6599 127.422 27.1744H127.509V30.1221L132.07 30.1134Z" fill="#1C1C4C"/>
<path d="M86.4594 0L85.0379 4.58721L80.2065 4.57849L81.6368 0H86.4594Z" fill="#1C1C4C"/>
</g>
<defs>
<clipPath id="clip0_0_57">
<rect width="191.86" height="75" fill="white"/>
</clipPath>
</defs>
</svg>
