<svg width="88" height="88" viewBox="0 0 88 88" fill="none" xmlns="http://www.w3.org/2000/svg">
<path d="M50.5666 34.1333C50.5666 32.8735 50.2508 31.6879 49.6955 30.6495L61.5856 19.8403C62.9043 21.0562 64.6651 21.8 66.5998 21.8C70.6862 21.8 73.9998 18.4863 73.9998 14.4C73.9998 10.3137 70.6862 7 66.5998 7C62.5135 7 59.1998 10.3137 59.1998 14.4C59.1998 15.6597 59.5156 16.8453 60.0709 17.8838L48.1808 28.693C46.8621 27.477 45.1014 26.7333 43.1666 26.7333C41.8382 26.7333 40.5926 27.0852 39.5148 27.6982L31.2445 21.4881C31.7687 20.4726 32.0666 19.3213 32.0666 18.0999C32.0666 14.0135 28.7529 10.6999 24.6666 10.6999C20.5802 10.6999 17.2666 14.0135 17.2666 18.0999C17.2666 18.7017 17.3401 19.286 17.4758 19.8461L10.9296 26.3793C9.88044 25.8089 8.67809 25.4848 7.4 25.4848C3.31323 25.4848 0 28.7976 0 32.8848C0 36.9711 3.31367 40.2848 7.4 40.2848C11.4863 40.2848 14.8 36.9711 14.8 32.8848C14.8 30.9718 14.074 29.2285 12.8826 27.9151L18.5477 22.2613C19.8797 24.216 22.1232 25.5 24.6666 25.5C26.6426 25.5 28.4365 24.7236 29.7639 23.4612L37.5557 29.312C36.4415 30.6073 35.7666 32.2912 35.7666 34.1334C35.7666 38.2197 39.0802 41.5334 43.1666 41.5334C47.2529 41.5334 50.5666 38.2197 50.5666 34.1333ZM7.39985 37.8182C4.67573 37.8182 2.46657 35.6089 2.46657 32.885C2.46657 30.1601 4.6753 27.9517 7.39985 27.9517C8.43932 27.9517 9.4032 28.2738 10.1984 28.8229C10.2032 28.8278 10.2072 28.8332 10.212 28.8379C10.3038 28.9299 10.4065 29.0042 10.5161 29.0611C11.6248 29.9657 12.3331 31.3424 12.3331 32.8851C12.3331 35.6091 10.124 37.8182 7.39985 37.8182ZM66.5998 9.46671C69.324 9.46671 71.5331 11.676 71.5331 14.4C71.5331 17.124 69.324 19.3333 66.5998 19.3333C63.8757 19.3333 61.6665 17.124 61.6665 14.4C61.6665 11.676 63.8757 9.46671 66.5998 9.46671ZM24.6666 23.0333C21.9424 23.0333 19.7333 20.824 19.7333 18.1C19.7333 15.376 21.9426 13.1667 24.6666 13.1667C27.3905 13.1667 29.5998 15.3759 29.5998 18.1C29.5998 19.1411 29.2764 20.1064 28.7256 20.9025C28.6808 20.9462 28.6378 20.9926 28.599 21.0444C28.5597 21.0967 28.5267 21.1516 28.4969 21.2077C27.5923 22.3212 26.2126 23.0333 24.6666 23.0333ZM38.2331 34.1333C38.2331 32.5894 38.9432 31.2114 40.0539 30.3068C40.169 30.2465 40.2758 30.1679 40.3694 30.0704C41.1645 29.5219 42.1278 29.2 43.1664 29.2C45.8905 29.2 48.0997 31.4093 48.0997 34.1333C48.0997 36.8573 45.8904 39.0666 43.1664 39.0666C40.4424 39.0667 38.2331 36.8574 38.2331 34.1333Z" fill="#E71316"/>
<path d="M61.6442 66.9008C63.9507 64.4689 65.3658 61.1832 65.3658 57.5667C65.3658 50.0739 59.2921 44 51.7991 44C44.3062 44 38.2324 50.0738 38.2324 57.5667C38.2324 65.0596 44.3062 71.1334 51.7991 71.1334C54.7857 71.1334 57.5463 70.1677 59.7872 68.5324L71.8936 80.6388C72.3753 81.1204 73.1562 81.1204 73.6378 80.6388C74.1194 80.1572 74.1194 79.3763 73.6378 78.8946L61.6442 66.9008ZM40.6993 57.5669C40.6993 51.4363 45.6687 46.4669 51.7993 46.4669C57.9299 46.4669 62.8993 51.4363 62.8993 57.5669C62.8993 63.6974 57.9299 68.6668 51.7993 68.6668C45.6687 68.6668 40.6993 63.6973 40.6993 57.5669Z" fill="#E71316"/>
</svg>
