<svg width="128" height="28" viewBox="0 0 128 28" fill="none" xmlns="http://www.w3.org/2000/svg">
<path fill-rule="evenodd" clip-rule="evenodd" d="M12.7665 3.30001V0.600006H0.533203V3.33334H4.7332V15.1667H8.5332V3.30001H12.7665ZM59.8332 15.1333C59.7332 14.1667 59.6665 13.4333 59.6665 12.9V8.00001C59.6665 5.96667 58.1665 4.70001 56.1999 4.70001C54.7665 4.73334 53.5332 5.36667 52.8332 6.50001C52.3999 5.36667 51.1665 4.76667 49.9999 4.76667C48.5999 4.76667 47.3999 5.23334 46.7332 6.50001L46.6665 5.00001H43.1999V15.1333H46.7999V9.00001C46.7999 8.66667 46.6665 6.93334 48.2999 6.93334C49.3999 6.93334 49.6665 7.93334 49.6665 8.90001V15.1H53.2332V9.00001C53.2332 8.66667 53.0999 6.93334 54.7332 6.93334C55.8332 6.93334 56.0999 7.93334 56.0999 8.90001V15.1L59.8332 15.1333ZM42.3999 7.96667V4.86667C40.8332 4.83334 39.6665 5.36667 39.1999 6.90001L39.1332 4.96667H35.5332C35.5999 5.80001 35.5999 6.90001 35.5999 7.56667V15.1H39.1999V10.6667C39.1999 9.00001 39.6999 7.96667 41.6665 7.93334C41.8999 7.93334 42.1332 7.93334 42.3999 7.96667ZM66.0332 4.70001C62.7332 4.70001 60.5665 6.53334 60.5665 10.0333C60.5665 13.6333 62.7332 15.4 66.0332 15.4C69.3332 15.4 71.4999 13.6 71.4999 10.0333C71.4665 6.53334 69.2999 4.70001 66.0332 4.70001ZM66.0332 6.83334C67.5332 6.83334 67.8332 8.40001 67.8332 9.96667C67.8332 11.8333 67.4999 13.2667 66.0332 13.2667C64.5665 13.2667 64.2332 11.8 64.2332 9.96667C64.2332 8.36667 64.4999 6.80001 66.0332 6.83334ZM23.7665 15.1333C23.6665 14.1667 23.6332 13.4667 23.6332 12.9V8.00001C23.6332 5.96667 22.1332 4.70001 20.1332 4.70001C19.5332 4.70001 18.9332 4.80001 18.4332 5.03334C17.9665 5.26667 17.5332 5.56667 17.1332 6.06667V0.600006H13.5999V15.1333H17.1999V9.00001C17.1999 8.66667 17.0665 6.93334 18.6999 6.93334C19.8332 6.93334 20.0665 7.93334 20.0665 8.90001V15.1L23.7665 15.1333ZM34.7332 10.7333C34.7665 7.10001 33.6665 4.70001 29.5999 4.70001C26.3999 4.70001 24.4665 6.66667 24.4665 9.76667C24.4665 13.5667 25.8332 15.4 29.7665 15.4C30.9999 15.4 32.0999 15.1333 32.8999 14.5667C33.7999 13.9667 34.4999 13.0667 34.5999 11.8H31.2665C31.1665 12.7333 30.6332 13.3667 29.5665 13.3667C28.1999 13.3667 27.8999 12.0667 27.9332 10.8H34.7332V10.7333ZM31.2999 8.80001H27.9665C28.0332 7.73334 28.2999 6.63334 29.6332 6.56667C30.2332 6.53334 30.6332 6.83334 30.8999 7.26667C31.1999 7.70001 31.2999 8.26667 31.2999 8.80001Z" fill="#EE3134"/>
<path fill-rule="evenodd" clip-rule="evenodd" d="M127.533 7.76667V4.66667C125.966 4.63333 124.799 5.16667 124.333 6.7L124.266 4.93333H120.666C120.733 5.76667 120.733 6.86667 120.733 7.53333V15.0667H124.333V10.6667C124.333 9 124.833 7.8 126.799 7.73333C127.033 7.76667 127.266 7.76667 127.533 7.76667ZM108.899 15.1333C108.799 14.1667 108.766 13.4667 108.766 12.9V8C108.766 5.96667 107.266 4.7 105.266 4.7C104.666 4.7 104.133 4.8 103.599 5.03333C103.133 5.26667 102.666 5.56667 102.266 6.06667V0.599999H98.6659V15.1333H102.266V9C102.266 8.66667 102.133 6.93333 103.766 6.93333C104.899 6.93333 105.133 7.93333 105.133 8.9V15.1L108.899 15.1333ZM97.7992 12.1C97.7992 10.5333 96.9659 9.76667 95.8326 9.33333C93.6659 8.56667 92.0659 8.53333 92.0659 7.73333C92.0659 7.13333 92.3992 6.8 92.9992 6.8C93.4659 6.8 93.7659 6.93333 93.9659 7.13333C94.1326 7.33333 94.2326 7.66667 94.2326 8.1H97.6326C97.5659 5.43333 95.4659 4.73333 93.1659 4.73333C91.1992 4.73333 88.6659 5.43333 88.6659 7.86667C88.6659 11.4 94.3992 10.5 94.3992 12.3667C94.3992 13.0333 93.8659 13.3333 93.1659 13.3333C92.7659 13.3333 92.4326 13.1333 92.2326 12.8333C92.0326 12.5667 91.9659 12.2 91.9992 11.8333H88.5659C88.4992 14.8667 90.7326 15.4 93.2326 15.4C95.5659 15.4 97.7992 14.5667 97.7992 12.1ZM119.833 10.7333C119.866 7.1 118.766 4.7 114.699 4.7C111.499 4.7 109.566 6.66667 109.566 9.76667C109.566 13.5667 110.899 15.4 114.866 15.4C116.099 15.4 117.199 15.1333 117.999 14.5667C118.899 13.9667 119.599 13.0667 119.699 11.8H116.333C116.233 12.7333 115.699 13.3667 114.633 13.3667C113.266 13.3667 112.966 12.0667 112.999 10.8H119.866V10.7333H119.833ZM116.466 8.8H113.133C113.199 7.73333 113.466 6.63333 114.799 6.56667C115.399 6.53333 115.799 6.83333 116.066 7.26667C116.333 7.7 116.466 8.26667 116.466 8.8ZM87.6992 15.1333V4.96667H84.0992V15.1L87.6992 15.1333ZM82.9992 3.23333L83.8326 0.566666H74.1992V15.1H77.9992V9.4H81.0659L81.8992 6.73333H77.9992V3.23333H82.9992ZM87.6992 3.23333L88.5659 0.566666H85.0326L84.1659 3.23333H87.6992Z" fill="#EE3134"/>
<path fill-rule="evenodd" clip-rule="evenodd" d="M33.3991 27.6V19.4H34.6991V27.6333H33.3991V27.6ZM121.866 27.7333C119.132 27.7333 117.066 26.2 117.066 23.5333C117.066 20.8333 119.366 19.1667 121.966 19.1667C122.899 19.1667 123.899 19.4667 124.566 19.9L123.899 20.7C123.332 20.3667 122.699 20.1667 121.999 20.1667C120.999 20.1667 120.032 20.4667 119.399 21.1667C118.866 21.7667 118.566 22.5 118.566 23.5667C118.566 24.7333 118.932 25.3667 119.532 25.9667C120.166 26.6 121.132 26.7667 122.066 26.7667C122.832 26.7667 123.566 26.5 124.166 26.1667L124.799 26.9333C124.099 27.4 122.966 27.7333 121.866 27.7333ZM108.066 27.6V19.4H109.366V27.6333H108.066V27.6ZM78.3324 20.3667H75.2658V27.6333H73.9991V20.3667H70.9324V19.3667H78.4991L78.3324 20.3667ZM9.89909 27.3C9.26576 27.6 8.49909 27.7667 7.56576 27.7667C6.39909 27.7667 5.19909 27.5 4.23242 27.0333L4.76576 26.1C5.73242 26.5667 6.63242 26.8 7.63242 26.8C8.29909 26.8 8.73242 26.7 9.13242 26.4667C9.59909 26.2 9.86576 25.8667 9.86576 25.4C9.86576 24.7 9.33242 24.2667 8.06576 24L6.73242 23.7C5.39909 23.4 4.56576 22.5667 4.56576 21.5667C4.56576 20.1667 5.93242 19.1667 7.93242 19.1667C9.09909 19.1667 10.2991 19.4667 11.0991 19.9667L10.4991 20.8333C9.69909 20.4 8.86576 20.1667 7.99909 20.1667C6.83242 20.1667 5.99909 20.6333 5.99909 21.4C5.99909 22 6.49909 22.3667 7.63242 22.6333L8.86576 22.9333C9.56576 23.1 10.2991 23.4 10.6991 23.7667C11.0991 24.1333 11.3324 24.7 11.3324 25.2333C11.3658 26.0667 10.8324 26.8667 9.89909 27.3ZM62.6658 27.6L59.3991 23.2C58.7991 22.3667 57.7324 20.7667 57.7324 20.7667C57.7324 20.7667 57.8324 22.1667 57.8658 23.3667L57.8991 27.6H56.5991V19.4H58.1658L61.4658 23.9C62.0991 24.7667 62.9991 26.1667 62.9991 26.1667C62.9991 26.1667 62.7991 24.6333 62.7991 23.5667L62.7658 19.4333H64.0658V27.6667L62.6658 27.6ZM85.2324 27.6V19.4H86.5324V27.6333H85.2324V27.6ZM100.866 20.3667H96.3324V22.8H100.166V23.7667H96.3324V27.6333H95.0324V19.4H101.032L100.866 20.3667ZM43.2324 27.6V19.4H49.3324L49.1658 20.4H44.5658V22.8667H48.4658V23.8667H44.5658V26.6667H49.4658V27.6667H43.2324V27.6ZM23.2324 27.7333C20.4991 27.7333 18.4324 26.2 18.4324 23.5333C18.4324 20.8333 20.7324 19.1667 23.3324 19.1667C24.2658 19.1667 25.2658 19.4667 25.9324 19.9L25.2658 20.7C24.6991 20.3667 24.0658 20.1667 23.3658 20.1667C22.3658 20.1667 21.3991 20.4667 20.7324 21.1667C20.1991 21.7667 19.8991 22.5 19.8991 23.5667C19.8991 24.7333 20.2658 25.3667 20.8658 25.9667C21.4991 26.6 22.4658 26.7667 23.3991 26.7667C24.1658 26.7667 24.8991 26.5 25.4991 26.1667L26.1324 26.9333C25.4658 27.4 24.3324 27.7333 23.2324 27.7333Z" fill="black"/>
</svg>
