<svg width="31" height="28" viewBox="0 0 31 28" fill="none" xmlns="http://www.w3.org/2000/svg">
<mask id="mask0_0_137" style="mask-type:luminance" maskUnits="userSpaceOnUse" x="-6" y="-7" width="42" height="42">
<path d="M-5.0746 -6.415H35.7454V34.405H-5.0746V-6.415Z" fill="white"/>
</mask>
<g mask="url(#mask0_0_137)">
<path fill-rule="evenodd" clip-rule="evenodd" d="M29.6054 0H7.49431C6.88073 0 6.37813 0.502597 6.37813 1.11617V2.71071C6.37813 3.32428 6.88073 3.82688 7.49431 3.82688H29.6054C30.2196 3.82688 30.7215 3.32428 30.7215 2.71071V1.11617C30.7215 0.502597 30.2196 0 29.6054 0Z" fill="#E71316"/>
<path fill-rule="evenodd" clip-rule="evenodd" d="M2.71134 0H1.11617C0.501959 0 0 0.502597 0 1.11617V2.71071C0 3.32428 0.501959 3.82688 1.11617 3.82688H2.71134C3.32492 3.82688 3.82752 3.32428 3.82752 2.71071V1.11617C3.82752 0.502597 3.32492 0 2.71134 0Z" fill="#E71316"/>
<path fill-rule="evenodd" clip-rule="evenodd" d="M29.6054 8.05787H7.49431C6.88073 8.05787 6.37813 8.56047 6.37813 9.17405V10.7686C6.37813 11.3822 6.88073 11.8848 7.49431 11.8848H29.6054C30.2196 11.8848 30.7215 11.3822 30.7215 10.7686V9.17405C30.7215 8.56047 30.2196 8.05787 29.6054 8.05787Z" fill="#E71316"/>
<path fill-rule="evenodd" clip-rule="evenodd" d="M2.71134 8.05787H1.11617C0.501959 8.05787 0 8.56047 0 9.17405V10.7686C0 11.3822 0.501959 11.8848 1.11617 11.8848H2.71134C3.32492 11.8848 3.82752 11.3822 3.82752 10.7686V9.17405C3.82752 8.56047 3.32492 8.05787 2.71134 8.05787Z" fill="#E71316"/>
<path fill-rule="evenodd" clip-rule="evenodd" d="M29.6054 16.115H7.49431C6.88073 16.115 6.37813 16.6176 6.37813 17.2312V18.8257C6.37813 19.4399 6.88073 19.9419 7.49431 19.9419H29.6054C30.2196 19.9419 30.7215 19.4399 30.7215 18.8257V17.2312C30.7215 16.6176 30.2196 16.115 29.6054 16.115Z" fill="#E71316"/>
<path fill-rule="evenodd" clip-rule="evenodd" d="M2.71134 16.115H1.11617C0.501959 16.115 0 16.6176 0 17.2312V18.8257C0 19.4399 0.501959 19.9419 1.11617 19.9419H2.71134C3.32492 19.9419 3.82752 19.4399 3.82752 18.8257V17.2312C3.82752 16.6176 3.32492 16.115 2.71134 16.115Z" fill="#E71316"/>
<path fill-rule="evenodd" clip-rule="evenodd" d="M29.6054 24.1731H7.49431C6.88073 24.1731 6.37813 24.6757 6.37813 25.2893V26.8838C6.37813 27.4974 6.88073 28 7.49431 28H29.6054C30.2196 28 30.7215 27.4974 30.7215 26.8838V25.2893C30.7215 24.6757 30.2196 24.1731 29.6054 24.1731Z" fill="#E71316"/>
<path fill-rule="evenodd" clip-rule="evenodd" d="M2.71134 24.1731H1.11617C0.501959 24.1731 0 24.6757 0 25.2893V26.8838C0 27.4974 0.501959 28 1.11617 28H2.71134C3.32492 28 3.82752 27.4974 3.82752 26.8838V25.2893C3.82752 24.6757 3.32492 24.1731 2.71134 24.1731Z" fill="#E71316"/>
</g>
</svg>
