<svg width="45" height="10" viewBox="0 0 45 10" fill="none" xmlns="http://www.w3.org/2000/svg">
<path fill-rule="evenodd" clip-rule="evenodd" d="M4.33446 0.967887V0.011235H0V0.979698H1.48813V5.17243H2.83453V0.967887H4.33446ZM21.0109 5.16062C20.9755 4.81812 20.9519 4.55829 20.9519 4.36932V2.63317C20.9519 1.91273 20.4204 1.46393 19.7236 1.46393C19.2157 1.47574 18.7787 1.70014 18.5307 2.1017C18.3772 1.70014 17.9402 1.48755 17.5268 1.48755C17.0308 1.48755 16.6056 1.6529 16.3694 2.1017L16.3458 1.57022H15.1175V5.16062H16.393V2.98749C16.393 2.86938 16.3458 2.25523 16.9245 2.25523C17.3142 2.25523 17.4087 2.60955 17.4087 2.95206V5.14881H18.6724V2.98749C18.6724 2.86938 18.6252 2.25523 19.2039 2.25523C19.5937 2.25523 19.6881 2.60955 19.6881 2.95206V5.14881L21.0109 5.16062ZM14.834 2.62136V1.52298C14.2789 1.51117 13.8656 1.70014 13.7002 2.24342L13.6766 1.55841H12.4011C12.4247 1.85368 12.4247 2.24342 12.4247 2.47963V5.14881H13.7002V3.57801C13.7002 2.98749 13.8774 2.62136 14.5742 2.60955C14.6569 2.60955 14.7395 2.60955 14.834 2.62136ZM23.2077 1.46393C22.0384 1.46393 21.2708 2.11351 21.2708 3.35361C21.2708 4.62915 22.0384 5.25511 23.2077 5.25511C24.3769 5.25511 25.1446 4.61734 25.1446 3.35361C25.1328 2.11351 24.3651 1.46393 23.2077 1.46393ZM23.2077 2.2198C23.7392 2.2198 23.8455 2.7749 23.8455 3.32999C23.8455 3.99138 23.7274 4.49923 23.2077 4.49923C22.688 4.49923 22.5699 3.97957 22.5699 3.32999C22.5699 2.76309 22.6644 2.20799 23.2077 2.2198ZM8.23194 5.16062C8.19651 4.81812 8.1847 4.5701 8.1847 4.36932V2.63317C8.1847 1.91273 7.65322 1.46393 6.94459 1.46393C6.732 1.46393 6.51941 1.49936 6.34225 1.58203C6.17691 1.66471 6.02337 1.771 5.88164 1.94816V0.011235H4.62973V5.16062H5.90526V2.98749C5.90526 2.86938 5.85802 2.25523 6.43674 2.25523C6.8383 2.25523 6.92097 2.60955 6.92097 2.95206V5.14881L8.23194 5.16062ZM12.1176 3.60163C12.1294 2.31429 11.7397 1.46393 10.2988 1.46393C9.16497 1.46393 8.47996 2.16075 8.47996 3.25913C8.47996 4.60553 8.96419 5.25511 10.3578 5.25511C10.7948 5.25511 11.1846 5.16062 11.468 4.95984C11.7869 4.74725 12.0349 4.42837 12.0704 3.97957H10.8893C10.8539 4.31027 10.6649 4.53467 10.287 4.53467C9.80274 4.53467 9.69644 4.07406 9.70825 3.62526H12.1176V3.60163ZM10.9011 2.91662H9.72007C9.74369 2.53869 9.83817 2.14894 10.3106 2.12532C10.5232 2.11351 10.6649 2.2198 10.7594 2.37334C10.8657 2.52688 10.9011 2.72766 10.9011 2.91662Z" fill="white"/>
<path fill-rule="evenodd" clip-rule="evenodd" d="M44.998 2.55107V1.45269C44.4429 1.44088 44.0296 1.62985 43.8642 2.17314L43.8406 1.54718H42.5651C42.5887 1.84244 42.5887 2.23219 42.5887 2.4684V5.13758H43.8642V3.57859C43.8642 2.98806 44.0414 2.56288 44.7382 2.53926C44.8209 2.55107 44.9036 2.55107 44.998 2.55107ZM38.396 5.1612C38.3605 4.8187 38.3487 4.57067 38.3487 4.3699V2.63375C38.3487 1.91331 37.8172 1.46451 37.1086 1.46451C36.896 1.46451 36.7071 1.49994 36.5181 1.58261C36.3527 1.66528 36.1874 1.77158 36.0457 1.94874V0.0118105H34.7701V5.1612H36.0457V2.98806C36.0457 2.86996 35.9984 2.25581 36.5771 2.25581C36.9787 2.25581 37.0614 2.61013 37.0614 2.95263V5.14939L38.396 5.1612ZM34.4631 4.08644C34.4631 3.53135 34.1678 3.25971 33.7662 3.10617C32.9985 2.83453 32.4316 2.82272 32.4316 2.53926C32.4316 2.32667 32.5497 2.20857 32.7623 2.20857C32.9277 2.20857 33.034 2.25581 33.1048 2.32667C33.1639 2.39754 33.1993 2.51564 33.1993 2.66918H34.404C34.3804 1.72434 33.6363 1.47632 32.8214 1.47632C32.1246 1.47632 31.227 1.72434 31.227 2.58651C31.227 3.83842 33.2584 3.51954 33.2584 4.18093C33.2584 4.41714 33.0694 4.52343 32.8214 4.52343C32.6797 4.52343 32.5616 4.45257 32.4907 4.34627C32.4198 4.25179 32.3962 4.12187 32.408 3.99196H31.1915C31.1679 5.06672 31.9592 5.25568 32.845 5.25568C33.6717 5.25568 34.4631 4.96042 34.4631 4.08644ZM42.2698 3.60221C42.2816 2.31486 41.8919 1.46451 40.451 1.46451C39.3172 1.46451 38.6322 2.16133 38.6322 3.25971C38.6322 4.60611 39.1046 5.25568 40.51 5.25568C40.947 5.25568 41.3368 5.1612 41.6202 4.96042C41.9391 4.74783 42.1871 4.42895 42.2226 3.98015H41.0297C40.9943 4.31084 40.8053 4.53524 40.4274 4.53524C39.9431 4.53524 39.8368 4.07463 39.8487 3.62583H42.2816V3.60221H42.2698ZM41.0769 2.9172H39.8959C39.9195 2.53926 40.014 2.14952 40.4864 2.12589C40.699 2.11408 40.8407 2.22038 40.9352 2.37392C41.0297 2.52745 41.0769 2.72823 41.0769 2.9172ZM30.8845 5.1612V1.55899H29.6089V5.14939L30.8845 5.1612ZM29.2192 0.944842L29.5144 0H26.1012V5.14939H27.4476V3.12979H28.5342L28.8294 2.18495H27.4476V0.944842H29.2192ZM30.8845 0.944842L31.1915 0H29.9396L29.6325 0.944842H30.8845Z" fill="white"/>
<path fill-rule="evenodd" clip-rule="evenodd" d="M11.6445 9.57828V6.67289H12.1051V9.59009H11.6445V9.57828ZM42.9896 9.62552C42.0211 9.62552 41.2889 9.08223 41.2889 8.13739C41.2889 7.18074 42.1038 6.59021 43.025 6.59021C43.3557 6.59021 43.71 6.69651 43.9463 6.85004L43.71 7.1335C43.5093 7.01539 43.2849 6.94453 43.0368 6.94453C42.6825 6.94453 42.34 7.05082 42.1156 7.29884C41.9267 7.51143 41.8204 7.77127 41.8204 8.1492C41.8204 8.56257 41.9503 8.78697 42.1629 8.99956C42.3873 9.22396 42.7298 9.28301 43.0605 9.28301C43.3321 9.28301 43.5919 9.18853 43.8045 9.07042L44.0289 9.34207C43.7809 9.50741 43.3794 9.62552 42.9896 9.62552ZM38.1 9.57828V6.67289H38.5607V9.59009H38.1V9.57828ZM27.5651 7.01539H26.4785V9.59009H26.0297V7.01539H24.9431V6.66108H27.6241L27.5651 7.01539ZM3.31804 9.47198C3.09364 9.57828 2.822 9.63733 2.49131 9.63733C2.07794 9.63733 1.65276 9.54284 1.31025 9.3775L1.49922 9.0468C1.84173 9.21215 2.16061 9.29482 2.51493 9.29482C2.75114 9.29482 2.90467 9.25939 3.0464 9.17672C3.21175 9.08223 3.30623 8.96413 3.30623 8.79878C3.30623 8.55076 3.11726 8.39722 2.66846 8.30274L2.19604 8.19644C1.72362 8.09015 1.42836 7.79489 1.42836 7.44057C1.42836 6.94453 1.91259 6.59021 2.62122 6.59021C3.03459 6.59021 3.45977 6.69651 3.74322 6.87367L3.53063 7.18074C3.24718 7.0272 2.95192 6.94453 2.64484 6.94453C2.23147 6.94453 1.93621 7.10988 1.93621 7.38152C1.93621 7.59411 2.11337 7.72402 2.51493 7.81851L2.95192 7.9248C3.19994 7.98386 3.45977 8.09015 3.6015 8.22007C3.74322 8.34998 3.8259 8.55076 3.8259 8.73973C3.83771 9.03499 3.64874 9.31844 3.31804 9.47198ZM22.0141 9.57828L20.8567 8.01929C20.6441 7.72402 20.2662 7.15712 20.2662 7.15712C20.2662 7.15712 20.3016 7.65316 20.3134 8.07834L20.3252 9.57828H19.8646V6.67289H20.4197L21.5889 8.26731C21.8133 8.57438 22.1322 9.07042 22.1322 9.07042C22.1322 9.07042 22.0613 8.52714 22.0613 8.1492L22.0495 6.6847H22.5102V9.6019L22.0141 9.57828ZM30.0098 9.57828V6.67289H30.4704V9.59009H30.0098V9.57828ZM35.549 7.01539H33.9427V7.87756H35.301V8.22007H33.9427V9.59009H33.4821V6.67289H35.608L35.549 7.01539ZM15.1286 9.57828V6.67289H17.2899L17.2308 7.0272H15.601V7.90118H16.9828V8.2555H15.601V9.24758H17.3371V9.6019H15.1286V9.57828ZM8.04225 9.62552C7.07379 9.62552 6.34154 9.08223 6.34154 8.13739C6.34154 7.18074 7.15646 6.59021 8.07769 6.59021C8.40838 6.59021 8.7627 6.69651 8.99891 6.85004L8.7627 7.1335C8.56192 7.01539 8.33752 6.94453 8.0895 6.94453C7.73518 6.94453 7.39267 7.05082 7.15646 7.29884C6.9675 7.51143 6.8612 7.77127 6.8612 8.1492C6.8612 8.56257 6.99112 8.78697 7.20371 8.99956C7.42811 9.22396 7.77061 9.28301 8.10131 9.28301C8.37295 9.28301 8.63278 9.18853 8.84537 9.07042L9.06977 9.34207C8.83356 9.50741 8.432 9.62552 8.04225 9.62552Z" fill="white"/>
</svg>
