<svg width="33" height="32" viewBox="0 0 33 32" fill="none" xmlns="http://www.w3.org/2000/svg">
<mask id="mask0_0_163" style="mask-type:luminance" maskUnits="userSpaceOnUse" x="-5" y="-5" width="42" height="42">
<path d="M-4.18199 -4.16521H36.2366V36.2534H-4.18199V-4.16521Z" fill="white"/>
</mask>
<g mask="url(#mask0_0_163)">
<path d="M25.8136 3.77467C25.7808 3.48732 25.6305 3.2265 25.3955 3.05661C22.6824 1.08557 19.3441 -4.81828e-05 15.9969 -4.81828e-05C7.1762 -4.81828e-05 0 7.17679 0 15.9969C0 24.2808 6.20994 31.1255 14.4446 31.9174C14.4774 31.9199 14.5103 31.9212 14.5425 31.9212C14.7964 31.9212 15.0427 31.8277 15.2328 31.6547C15.4475 31.4608 15.5688 31.1848 15.5688 30.8949V16.6916C15.5688 15.9217 15.8378 15.5794 16.0639 15.3079C16.2893 15.0369 25.5616 4.56663 25.5616 4.56663C25.753 4.35064 25.8446 4.06266 25.8136 3.77467Z" fill="#E71316"/>
<path d="M28.8532 6.29777C28.6586 6.09062 28.3883 5.97379 28.1041 5.97379H28.089C27.8004 5.97821 27.5263 6.10389 27.3356 6.32051L19.5272 15.1513C19.3466 15.3547 19.2544 15.6218 19.272 15.894C19.2885 16.1662 19.4129 16.4201 19.6175 16.6001L29.1582 25.0135C29.3477 25.1796 29.5895 25.2705 29.8377 25.2705C29.887 25.2705 29.9375 25.2667 29.9868 25.2592C30.2855 25.215 30.5495 25.0425 30.7086 24.7855C32.2073 22.3812 32.9992 19.5999 32.9992 16.7479C32.9992 12.9138 31.4879 9.10497 28.8532 6.29777Z" fill="#E71316"/>
<path d="M19.429 19.6224C18.9863 19.2662 18.6263 19.3426 18.4918 19.4026C18.1236 19.5681 18.0522 19.8952 18.0522 20.2981L18.0554 30.9238C18.0554 31.2118 18.1766 31.4859 18.3895 31.681C18.5789 31.8547 18.8271 31.9501 19.0816 31.9501C19.1119 31.9501 19.1422 31.9488 19.1719 31.9463C22.2216 31.6785 25.0825 30.5101 27.4458 28.5688C27.6788 28.3774 27.8152 28.0939 27.8209 27.7933C27.8259 27.4926 27.6996 27.2047 27.4735 27.0057L19.429 19.6224Z" fill="#E71316"/>
</g>
</svg>
