<svg width="88" height="88" viewBox="0 0 88 88" fill="none" xmlns="http://www.w3.org/2000/svg">
<path d="M85.1727 37.4941L76.7189 21.3048C76.2147 20.3497 75.3576 19.6291 74.33 19.2966C73.3025 18.9641 72.1857 19.0458 71.2176 19.5245L62.9246 23.6708H56.6711L45.058 18.4162C44.1609 18.0109 43.1485 17.9393 42.2032 18.2142L24.9546 23.2427L16.7809 19.156C15.8127 18.6776 14.696 18.5959 13.6685 18.9284C12.641 19.2609 11.7838 19.9813 11.2795 20.9362L2.82574 37.1259C2.57225 37.6114 2.418 38.1427 2.372 38.6885C2.32599 39.2343 2.38916 39.7839 2.55781 40.305C2.72646 40.8262 2.99721 41.3086 3.35428 41.724C3.71134 42.1394 4.14756 42.4795 4.63748 42.7246L13.0112 46.9114L31.692 61.5188C32.1467 61.8756 32.6717 62.1321 33.2325 62.2715L53.1552 67.2522C53.4794 67.3329 53.8121 67.3737 54.1462 67.3737C55.2427 67.3741 56.2948 66.9403 57.0724 66.1672L69.7214 53.5181C69.7469 53.4928 69.771 53.4664 69.7945 53.4392L75.1136 47.2166L83.3609 43.093C83.8508 42.848 84.2871 42.5078 84.6441 42.0924C85.0012 41.677 85.272 41.1946 85.4406 40.6734C85.6093 40.1522 85.6724 39.6027 85.6264 39.0568C85.5804 38.511 85.4262 37.9797 85.1727 37.4941ZM68.53 50.6862L54.4329 40.4338C54.1951 40.2609 53.9081 40.1687 53.614 40.1708C53.32 40.173 53.0344 40.2693 52.7991 40.4457L48.3992 43.7457C46.7299 44.9877 44.7048 45.6584 42.6242 45.6584C40.5436 45.6584 38.5185 44.9877 36.8493 43.7457L34.9859 42.3482C34.8283 42.2301 34.6979 42.0794 34.6036 41.9064C34.5093 41.7335 34.4533 41.5423 34.4393 41.3458C34.4254 41.1494 34.4538 40.9522 34.5226 40.7676C34.5915 40.5831 34.6992 40.4155 34.8385 40.2762L48.291 26.8236C48.5495 26.5666 48.8988 26.4219 49.2632 26.4208H56.3703L56.3735 26.4211L56.3782 26.4208H62.416L72.6003 45.9243L68.53 50.6862ZM5.17425 39.4584C5.11743 39.2848 5.09606 39.1015 5.1114 38.9195C5.12673 38.7374 5.17847 38.5603 5.26355 38.3986L13.7173 22.209C13.8348 21.9862 14.0109 21.7997 14.2267 21.6698C14.4425 21.5399 14.6897 21.4715 14.9416 21.472C15.1531 21.4718 15.3617 21.521 15.5509 21.6157L22.8827 25.2815L13.1557 43.909L5.86746 40.2649C5.70381 40.1837 5.55812 40.0705 5.43904 39.932C5.31997 39.7935 5.22992 39.6324 5.17425 39.4584ZM55.1281 64.2225C54.9599 64.39 54.7513 64.5113 54.5225 64.5746C54.2936 64.638 54.0524 64.6412 53.8219 64.5841L33.8992 59.6034C33.7123 59.5569 33.5374 59.4715 33.3859 59.3526L15.4978 45.3651L25.6613 25.9012L42.9727 20.8545C43.2877 20.7626 43.6253 20.7864 43.9243 20.9216L49.9999 23.6708H49.2632C48.7213 23.6693 48.1846 23.7753 47.6839 23.9827C47.1833 24.1901 46.7288 24.4947 46.3467 24.8789L32.8941 38.3315C32.4762 38.7494 32.1529 39.2522 31.9462 39.8058C31.7395 40.3595 31.6542 40.9512 31.696 41.5407C31.7379 42.1302 31.9059 42.7039 32.1888 43.2228C32.4717 43.7417 32.8628 44.1938 33.3356 44.5484L35.199 45.9459C37.3453 47.5426 39.9491 48.4049 42.6242 48.4049C45.2993 48.4049 47.9031 47.5426 50.0494 45.9459L53.6366 43.2551L66.6392 52.7113L55.1281 64.2225ZM82.8242 39.8268C82.7685 40.0008 82.6784 40.1619 82.5594 40.3004C82.4403 40.4389 82.2946 40.5522 82.131 40.6333L74.8427 44.2775L65.1157 25.6498L72.4475 21.9841C72.7702 21.8244 73.1425 21.7971 73.485 21.908C73.8275 22.0189 74.1132 22.2591 74.2811 22.5776L82.7349 38.7669C82.8199 38.9286 82.8717 39.1057 82.887 39.2878C82.9024 39.4699 82.881 39.6532 82.8242 39.8268ZM39.8333 73.5041C39.7896 73.6794 39.7119 73.8443 39.6044 73.9895C39.497 74.1347 39.362 74.2573 39.2071 74.3502C39.0522 74.4432 38.8805 74.5047 38.7019 74.5312C38.5232 74.5577 38.3411 74.5488 38.1659 74.5048L27.8054 71.9149C27.1749 71.7564 26.5905 71.4519 26.0994 71.026L18.3472 64.2873C18.2104 64.169 18.0983 64.0249 18.0173 63.8632C17.9363 63.7015 17.888 63.5254 17.8752 63.345C17.8624 63.1647 17.8852 62.9835 17.9425 62.812C17.9998 62.6405 18.0903 62.4819 18.209 62.3454C18.3276 62.2089 18.472 62.0972 18.6339 62.0166C18.7958 61.936 18.972 61.8882 19.1524 61.8758C19.3328 61.8634 19.5139 61.8867 19.6853 61.9444C19.8567 62.0021 20.015 62.0931 20.1512 62.2121L27.9037 68.9508C28.0677 69.0927 28.2627 69.1942 28.4731 69.2472L38.8326 71.8367C39.1863 71.9252 39.4905 72.1506 39.6781 72.4632C39.8658 72.7759 39.9216 73.1503 39.8333 73.5041Z" fill="#E71316"/>
</svg>
