<svg width="32" height="32" viewBox="0 0 32 32" fill="none" xmlns="http://www.w3.org/2000/svg">
<g clip-path="url(#clip0_0_431)">
<path d="M23.8918 20.877C23.4951 20.9921 22.9127 21.005 22.2883 20.916C21.6181 20.8205 20.9345 20.6191 20.2626 20.3224C21.4608 20.151 22.3903 20.2038 23.1853 20.4807C23.3736 20.5463 23.683 20.7217 23.8918 20.877ZM17.2069 19.7967C17.1581 19.8098 17.1101 19.8221 17.0624 19.8351C16.74 19.9214 16.4263 20.0055 16.124 20.0804L15.7164 20.182C14.8965 20.3859 14.0581 20.5942 13.2302 20.8423C13.5448 20.0965 13.8372 19.3424 14.1234 18.6051C14.3354 18.0594 14.5518 17.5018 14.7756 16.9515C14.8891 17.1358 15.0076 17.3202 15.131 17.5051C15.6927 18.3461 16.3989 19.1236 17.2069 19.7967ZM15.1213 11.3861C15.1744 12.3064 14.9724 13.1918 14.6761 14.0411C14.311 12.9909 14.1409 11.8311 14.5973 10.8948C14.7143 10.6548 14.8102 10.5265 14.8724 10.4595C14.9684 10.6053 15.0947 10.9314 15.1213 11.3861ZM10.8407 23.0443C10.6356 23.405 10.4263 23.7426 10.2117 24.0614C9.69391 24.8284 8.84705 25.6497 8.412 25.6497C8.36919 25.6497 8.31738 25.6429 8.24168 25.5643C8.19295 25.5141 8.18515 25.4781 8.18751 25.429C8.20217 25.147 8.58232 24.6447 9.13301 24.179C9.63284 23.7566 10.1978 23.381 10.8407 23.0443ZM25.2771 20.9169C25.2106 19.9775 23.6018 19.3749 23.586 19.3693C22.9641 19.1526 22.2884 19.0473 21.5206 19.0473C20.6986 19.0473 19.8125 19.1642 18.6744 19.4255C17.6617 18.7199 16.7869 17.8366 16.1334 16.8586C15.8447 16.4266 15.5853 15.9953 15.3591 15.574C15.9112 14.2763 16.4085 12.881 16.3181 11.3183C16.2453 10.0653 15.6704 9.2236 14.8887 9.2236C14.3524 9.2236 13.8906 9.614 13.5152 10.385C12.8454 11.759 13.0215 13.517 14.0382 15.6147C13.672 16.4601 13.3318 17.3365 13.0025 18.1849C12.5928 19.2398 12.1706 20.3282 11.6948 21.3636C10.3604 21.8826 9.26422 22.5119 8.35064 23.2846C7.75216 23.7898 7.03065 24.5622 6.98947 25.3686C6.96937 25.7483 7.10184 26.0966 7.37104 26.3756C7.65703 26.6718 8.01634 26.8278 8.41142 26.8283C9.71627 26.8283 10.9721 25.0662 11.2104 24.7127C11.6898 24.0023 12.1386 23.2099 12.5784 22.2959C13.6859 21.9025 14.8663 21.6088 16.0103 21.325L16.42 21.2226C16.728 21.1457 17.0481 21.0606 17.3764 20.9722C17.7239 20.8799 18.0814 20.7842 18.4447 20.6932C19.6194 21.4275 20.8827 21.9065 22.1147 22.0822C23.1524 22.2306 24.074 22.1446 24.6979 21.8249C25.2592 21.5375 25.2901 21.0941 25.2771 20.9169ZM27.8042 28.9942C27.8042 30.7146 26.2616 30.8206 25.9504 30.8241H6.04797C4.30407 30.8241 4.19906 29.2974 4.19573 28.9942L4.1955 3.00514C4.1955 1.28312 5.74094 1.17872 6.04773 1.17526H19.4922L19.4993 1.18224V6.33917C19.4993 7.3741 20.1359 9.33352 22.5466 9.33352H27.7593L27.804 9.37744L27.8042 28.9942ZM26.5685 8.15808H22.5475C20.8041 8.15808 20.6986 6.63975 20.6963 6.33934V2.36246L26.5685 8.15808ZM29 28.9942V8.89256L20.6963 0.696818V0.658686H20.6566L19.9896 0H6.04801C4.9937 0 3 0.628269 3 3.00569V28.9948C3 30.0342 3.63725 32 6.04801 32H25.9522C27.0063 31.9998 29 31.3714 29 28.9942Z" fill="white"/>
</g>
<defs>
<clipPath id="clip0_0_431">
<rect width="32" height="32" fill="white"/>
</clipPath>
</defs>
</svg>
