<svg width="21" height="29" viewBox="0 0 21 29" fill="none" xmlns="http://www.w3.org/2000/svg">
<mask id="mask0_3781_12181" style="mask-type:luminance" maskUnits="userSpaceOnUse" x="-6" y="-1" width="33" height="33">
<path d="M-5.85898 -0.208688H26.2459V31.8962H-5.85898V-0.208688Z" fill="white"/>
</mask>
<g mask="url(#mask0_3781_12181)">
<path d="M5.3887 5.89425H15.0041C15.5559 5.89425 16.0074 5.44278 16.0074 4.89098V3.05147C16.0074 2.49967 15.5559 2.04819 15.0041 2.04819H14.6063H13.8333C13.5569 2.04819 13.3316 1.83349 13.3316 1.57013V1.00328C13.3316 0.451475 12.8802 4.784e-07 12.3284 4.784e-07H8.06444C7.51263 4.784e-07 7.06116 0.451475 7.06116 1.00328V1.58668C7.05213 1.84152 6.83291 2.04819 6.56353 2.04819H5.79051H5.3887C4.83689 2.04819 4.38542 2.49967 4.38542 3.05147V4.89098C4.38542 5.44278 4.83689 5.89425 5.3887 5.89425Z" fill="white"/>
<path d="M16.1904 12.3346H4.21376C3.72868 12.3346 3.3359 11.9413 3.3359 11.4567C3.3359 10.9721 3.72868 10.5788 4.21376 10.5788H16.1904C16.6755 10.5788 17.0683 10.9721 17.0683 11.4567C17.0683 11.9413 16.6755 12.3346 16.1904 12.3346ZM3.3359 15.4322C3.3359 14.9471 3.72868 14.5543 4.21376 14.5543H13.9049C14.39 14.5543 14.7828 14.9471 14.7828 15.4322C14.7828 15.9168 14.39 16.31 13.9049 16.31H4.21376C3.72868 16.31 3.3359 15.9168 3.3359 15.4322ZM15.4444 20.285H4.21376C3.72868 20.285 3.3359 19.8923 3.3359 19.4072C3.3359 18.9226 3.72868 18.5293 4.21376 18.5293H15.4444C15.929 18.5293 16.3223 18.9226 16.3223 19.4072C16.3223 19.8923 15.929 20.285 15.4444 20.285ZM13.9049 24.261H4.21376C3.72868 24.261 3.3359 23.8677 3.3359 23.3832C3.3359 22.8981 3.72868 22.5053 4.21376 22.5053H13.9049C14.39 22.5053 14.7828 22.8981 14.7828 23.3832C14.7828 23.8677 14.39 24.261 13.9049 24.261ZM18.7382 3.27146H17.5107V4.89125C17.5107 6.27427 16.3855 7.39944 15.0025 7.39944H5.3871C4.00408 7.39944 2.8789 6.27427 2.8789 4.89125V3.27146H1.6514C0.742928 3.27146 0 4.01489 0 4.92285V27.3486C0 28.2571 0.742928 29 1.6514 29H18.7382C19.6467 29 20.3896 28.2571 20.3896 27.3486V4.92285C20.3896 4.01489 19.6467 3.27146 18.7382 3.27146Z" fill="white"/>
</g>
</svg>
