<svg width="208" height="74" viewBox="0 0 208 74" fill="none" xmlns="http://www.w3.org/2000/svg">
<path d="M0 72.6327H2.98248V38.8398H0V72.6327ZM22.1944 63.1669C22.2454 67.9423 18.2178 70.8143 13.6973 70.8143C10.9018 70.8143 8.25067 68.9704 8.25067 65.988C8.25067 61.2041 14.547 61.2551 19.6113 60.3544C20.41 60.21 21.7355 59.9805 22.1604 59.2668H22.2539V63.1499L22.1944 63.1669ZM9.27882 55.6895C9.37229 51.7469 12.1168 50.0474 15.8046 50.0474C19.3054 50.0474 22.1944 51.0416 22.1944 55.0607C22.1944 57.7543 20.8264 58.0857 18.3622 58.3746C11.9299 59.1308 5.2512 59.3687 5.2512 66.2259C5.2512 71.1457 8.94743 73.3719 13.4424 73.3719C18.1243 73.3719 20.2401 71.5706 22.3388 68.4011H22.4323C22.4323 70.9503 22.9081 72.6497 25.9331 72.6497C26.588 72.6588 27.2415 72.5875 27.8789 72.4373V69.9306C27.5778 70.0474 27.2586 70.1107 26.9358 70.1176C26.6957 70.1443 26.4526 70.1159 26.2251 70.0346C25.9977 69.9533 25.7917 69.8212 25.6229 69.6484C25.4542 69.4755 25.327 69.2664 25.2512 69.0371C25.1754 68.8077 25.1529 68.5641 25.1854 68.3247V55.3581C25.1854 48.8239 20.5035 47.4983 16.1954 47.4983C10.6129 47.4983 6.58524 49.9625 6.30484 55.6895H9.27882ZM48.7903 60.4224C48.7903 65.5206 46.4706 70.8313 40.7945 70.8313C34.4472 70.8313 32.2294 65.4866 32.2294 60.4224C32.2294 55.3581 34.4472 50.0474 40.7945 50.0474C46.4706 50.0474 48.7903 55.3921 48.7903 60.4564M29.247 72.6667H31.9915V67.9933H32.1275C33.504 71.3071 36.9028 73.338 40.837 73.338C48.2634 73.338 51.8152 67.3305 51.8152 60.4224C51.8152 53.5143 48.221 47.4983 40.7945 47.4983C37.1493 47.4983 33.5975 49.3507 32.2974 52.8515H32.204V38.8398H29.247V72.6327V72.6667ZM76.3123 55.3581C76.0914 50.0474 72.2082 47.4983 67.3394 47.4983C63.0314 47.4983 58.1541 49.3932 58.1541 54.364C58.1541 58.5275 61.094 59.8531 64.9517 60.8897L68.7839 61.7394C71.486 62.4022 74.1371 63.3454 74.1371 66.1834C74.1371 69.5822 70.2539 70.8228 67.4584 70.8228C63.4902 70.8228 60.5078 68.741 60.2698 64.7219H57.3043C57.7802 70.6699 61.6634 73.3294 67.3394 73.3294C71.8769 73.3294 77.1366 71.2986 77.1366 65.9965C77.1366 61.7479 73.5848 59.7511 70.1774 59.1988L66.2008 58.3406C64.17 57.8138 61.1025 56.8706 61.1025 54.2195C61.1025 51.0501 64.2295 50.0135 66.8806 50.0135C70.2794 50.0135 73.1259 51.6619 73.2619 55.3581H76.3123ZM99.8833 61.2211C100.104 54.364 96.9603 47.4983 89.1005 47.4983C81.2406 47.4983 78.0542 53.9816 78.0542 60.4224C78.0542 67.373 81.3171 73.338 89.1005 73.338C95.2523 73.338 98.4472 70.1176 99.7473 64.586H96.7733C95.8216 68.2737 93.4595 70.8313 89.1259 70.8313C83.4074 70.8313 81.1302 65.5801 81.0877 61.2211H99.8833ZM81.0962 58.672C81.5295 54.296 84.2316 50.0474 89.1005 50.0474C93.9693 50.0474 96.7478 54.2535 96.8668 58.7485L81.0962 58.672ZM101.77 72.5902H104.752V59.6152C104.752 54.5169 108.448 50.5743 113.835 50.8632V47.8807C111.844 47.7281 109.858 48.24 108.188 49.3362C106.519 50.4324 105.259 52.0511 104.608 53.9391H104.514V48.2121H101.77V72.6327V72.5902ZM124.771 72.5902H127.941L137.075 48.1696H133.999L126.428 69.6077H126.335L118.687 48.1696H115.382L124.746 72.6327L124.771 72.5902ZM137.925 72.5902H140.89V48.2121H137.908V72.6327L137.925 72.5902ZM164.682 55.8764C164.019 50.2939 160 47.4983 154.791 47.4983C147.314 47.4983 143.244 53.4463 143.244 60.4224C143.244 67.3985 147.314 73.338 154.791 73.338C160.23 73.338 164.07 69.7437 164.869 63.8722H161.878C161.504 67.9423 158.479 70.8313 154.783 70.8313C149.056 70.8313 146.218 65.6226 146.218 60.4224C146.218 55.2222 149.056 50.0474 154.783 50.0474C158.666 50.0474 160.884 52.2652 161.691 55.9104L164.682 55.8764ZM187.446 61.2211C187.675 54.364 184.557 47.4983 176.697 47.4983C168.837 47.4983 165.651 53.9816 165.651 60.4224C165.651 67.373 168.914 73.338 176.697 73.338C182.849 73.338 186.044 70.1176 187.344 64.586H184.37C183.418 68.2737 181.056 70.8313 176.722 70.8313C171.004 70.8313 168.727 65.5801 168.684 61.2211H187.446ZM168.659 58.672C169.117 54.296 171.82 50.0474 176.688 50.0474C181.557 50.0474 184.336 54.2535 184.455 58.7485L168.659 58.672ZM207.176 55.2732C206.972 50.0474 203.097 47.4983 198.22 47.4983C193.912 47.4983 189.043 49.3932 189.043 54.364C189.043 58.5275 191.975 59.8531 195.841 60.8897L199.673 61.7394C202.367 62.4022 205.018 63.3454 205.018 66.1834C205.018 69.5822 201.143 70.8228 198.347 70.8228C194.371 70.8228 191.388 68.741 191.15 64.7219H188.176C188.644 70.6699 192.527 73.3294 198.203 73.3294C202.749 73.3294 208 71.2986 208 65.9965C208 61.7479 204.448 59.7511 201.041 59.1988L197.073 58.2981C195.034 57.7713 191.975 56.8281 191.975 54.177C191.975 51.0076 195.093 49.971 197.744 49.971C201.143 49.971 203.99 51.6194 204.134 55.3156L207.176 55.2732Z" fill="#55585A"/>
<path d="M142.323 38.8652L140.845 43.6066H137.888L139.366 38.8652H142.323Z" fill="#55585A"/>
<path d="M21.4891 8.59878H16.0935V22.7974C16.0935 26.5786 14.5725 29.4676 10.0775 29.4676C7.14605 29.4676 5.39565 27.9041 5.39565 23.5961V8.59878H0V24.1229C0 30.5043 2.74456 33.7246 9.13437 33.7246C10.5465 33.7022 11.9289 33.3158 13.148 32.6028C14.3672 31.8898 15.3817 30.8743 16.0935 29.6545H16.187V33.0534H21.4891V8.59878Z" fill="#29829E"/>
<path d="M23.7991 33.0536H29.1948V18.6086C29.1948 15.0058 31.5145 12.1678 35.1428 12.1678C38.3122 12.1678 39.8246 13.8247 39.9181 17.6569V33.0536H45.3138V16.2634C45.3138 10.7743 41.9149 7.93624 36.6552 7.93624C35.1104 7.92429 33.5899 8.32026 32.2471 9.08414C30.9043 9.84802 29.787 10.9528 29.0079 12.2867L28.9144 12.1933V8.59901H23.8161V33.0536H23.7991Z" fill="#29829E"/>
<path d="M47.5978 33.0619H52.9934V8.59878H47.5978V33.0619Z" fill="#29829E"/>
<path d="M54.8065 12.6606H58.8766V27.1057C58.9701 31.1757 60.0067 33.351 65.6743 33.351C66.8554 33.351 67.994 33.1641 69.1751 33.0621V28.8985C68.4303 29.0604 67.6678 29.1261 66.9064 29.094C64.4932 29.094 64.3062 27.9554 64.3062 25.6951V12.6606H69.1751V8.59901H64.2723V2.46412L58.8766 5.1492V8.59901H54.8065V12.6606Z" fill="#29829E"/>
<path d="M79.5236 32.9686L78.9034 34.8635C78.2406 36.9452 77.6288 38.2623 75.1222 38.2623C74.2651 38.2184 73.4128 38.1076 72.573 37.9309V42.4683C73.8097 42.6633 75.0598 42.7599 76.3118 42.7572C81.9453 42.7572 83.2199 38.7806 84.9703 34.3791L94.487 8.59047H88.8534L82.6506 26.8592H82.5571L76.1673 8.59047H70.2193L79.5236 32.9686Z" fill="#29829E"/>
<path d="M49.1964 0L47.5905 5.14073L53.0116 5.14923L54.6091 0H49.1964Z" fill="#29829E"/>
</svg>
