<svg width="86" height="86" viewBox="0 0 86 86" fill="none" xmlns="http://www.w3.org/2000/svg">
<g clip-path="url(#clip0_0_308)">
<mask id="mask0_0_308" style="mask-type:luminance" maskUnits="userSpaceOnUse" x="-2" y="13" width="62" height="61">
<path d="M-1.0078 13.1015H59.4605V73.5698H-1.0078V13.1015Z" fill="white"/>
</mask>
<g mask="url(#mask0_0_308)">
<path d="M20.1718 27.4312H38.2821C39.3214 27.4312 40.1717 26.5809 40.1717 25.5416V22.0769C40.1717 21.0376 39.3214 20.1873 38.2821 20.1873H37.5329H36.0769C35.5563 20.1873 35.1321 19.7829 35.1321 19.2869V18.2192C35.1321 17.1799 34.2817 16.3296 33.2424 16.3296H25.2115C24.1722 16.3296 23.3219 17.1799 23.3219 18.2192V19.318C23.3049 19.798 22.892 20.1873 22.3846 20.1873H20.9286H20.1718C19.1325 20.1873 18.2822 21.0376 18.2822 22.0769V25.5416C18.2822 26.5809 19.1325 27.4312 20.1718 27.4312Z" fill="#E71316"/>
<path d="M40.5189 39.5606H17.9614C17.0477 39.5606 16.3079 38.8199 16.3079 37.9072C16.3079 36.9945 17.0477 36.2538 17.9614 36.2538H40.5189C41.4325 36.2538 42.1723 36.9945 42.1723 37.9072C42.1723 38.8199 41.4325 39.5606 40.5189 39.5606ZM16.3079 45.3949C16.3079 44.4813 17.0477 43.7415 17.9614 43.7415H36.2143C37.1279 43.7415 37.8677 44.4813 37.8677 45.3949C37.8677 46.3076 37.1279 47.0483 36.2143 47.0483H17.9614C17.0477 47.0483 16.3079 46.3076 16.3079 45.3949ZM39.1139 54.5351H17.9614C17.0477 54.5351 16.3079 53.7953 16.3079 52.8816C16.3079 51.9689 17.0477 51.2282 17.9614 51.2282H39.1139C40.0266 51.2282 40.7674 51.9689 40.7674 52.8816C40.7674 53.7953 40.0266 54.5351 39.1139 54.5351ZM36.2143 62.0237H17.9614C17.0477 62.0237 16.3079 61.2829 16.3079 60.3702C16.3079 59.4566 17.0477 58.7168 17.9614 58.7168H36.2143C37.1279 58.7168 37.8677 59.4566 37.8677 60.3702C37.8677 61.2829 37.1279 62.0237 36.2143 62.0237ZM45.3176 22.4906H43.0056V25.5414C43.0056 28.1463 40.8864 30.2655 38.2815 30.2655H20.1713C17.5664 30.2655 15.4472 28.1463 15.4472 25.5414V22.4906H13.1352C11.4242 22.4906 10.0249 23.8909 10.0249 25.601V67.839C10.0249 69.5501 11.4242 70.9494 13.1352 70.9494H45.3176C47.0287 70.9494 48.4279 69.5501 48.4279 67.839V25.601C48.4279 23.8909 47.0287 22.4906 45.3176 22.4906Z" fill="#E71316"/>
</g>
</g>
<defs>
<clipPath id="clip0_0_308">
<rect width="85.3333" height="85.3333" fill="white" transform="scale(1.0078)"/>
</clipPath>
</defs>
</svg>
