<svg width="86" height="86" viewBox="0 0 86 86" fill="none" xmlns="http://www.w3.org/2000/svg">
<g clip-path="url(#clip0_0_339)">
<mask id="mask0_0_339" style="mask-type:luminance" maskUnits="userSpaceOnUse" x="-2" y="8" width="72" height="71">
<path d="M-1.0078 8.06244H69.5385V78.6088H-1.0078V8.06244Z" fill="white"/>
</mask>
<g mask="url(#mask0_0_339)">
<path d="M35.7118 21.336L27.3388 36.9951C27.1062 37.4327 26.6565 37.6818 26.1936 37.6818C25.9874 37.6818 25.7769 37.6322 25.5829 37.5286C24.9491 37.1902 24.711 36.4032 25.0494 35.7704L33.4213 20.1114C33.7585 19.4775 34.5456 19.2405 35.1794 19.5778C35.811 19.9162 36.0502 20.7033 35.7118 21.336ZM54.6259 66.6466H47.9185L47.4412 66.6069C53.043 62.8845 56.7434 56.5188 56.7434 49.2856C56.7434 39.5623 50.0647 31.4296 41.0579 29.1567L44.3824 22.9046C45.3028 21.3349 44.4959 19.4379 43.3055 18.8966L35.9918 15.3263C34.8013 14.6771 32.9065 15.0023 32.0412 16.5719L21.4185 36.6942C20.5333 38.5206 21.2156 40.6789 22.9341 41.5112C22.9341 41.5112 22.362 42.6079 22.0412 43.2054C21.608 44.0144 21.8274 44.7298 22.5814 45.1509C23.3331 45.5731 25.5774 46.6467 26.3699 46.9939C27.1625 47.3467 27.8856 47.0457 28.2648 46.3425C28.5536 45.8123 29.1719 44.5358 29.1719 44.5358C30.8981 45.3681 33.009 44.5623 33.8952 42.7292L37.6573 35.5974C44.4915 36.4506 49.8156 42.221 49.8156 49.2856C49.8156 56.9244 43.5976 63.1424 35.9598 63.1424C32.4733 63.1424 27.9881 61.8164 25.5653 59.6779V57.9462C25.5653 57.1339 26.123 56.4615 26.8737 56.2719H34.5313C35.488 56.2719 36.2629 55.497 36.2629 54.5402C36.2629 53.5834 35.488 52.8085 34.5313 52.8085H10.0638C9.10701 52.8085 8.33211 53.5834 8.33211 54.5402C8.33211 55.497 9.10701 56.2719 10.0638 56.2719H17.3301C18.0818 56.4615 18.6374 57.1339 18.6374 57.9462V59.6779V64.5831C18.6374 64.5831 18.7741 66.6223 17.0743 66.6466H14.0298C12.6244 66.6466 11.4846 67.7864 11.4846 69.1918C11.4846 69.5886 11.5839 69.9601 11.747 70.2952C11.7756 70.39 11.8241 70.4781 11.8903 70.5608C12.3433 71.2663 13.1304 71.737 14.0298 71.737H54.6259C56.0314 71.737 57.1711 70.5972 57.1711 69.1918C57.1711 67.7864 56.0314 66.6466 54.6259 66.6466Z" fill="#E71316"/>
</g>
</g>
<defs>
<clipPath id="clip0_0_339">
<rect width="85.3333" height="85.3333" fill="white" transform="scale(1.0078)"/>
</clipPath>
</defs>
</svg>
