<svg width="24" height="17" viewBox="0 0 24 17" fill="none" xmlns="http://www.w3.org/2000/svg">
<path fill-rule="evenodd" clip-rule="evenodd" d="M9.58613 11.5033V4.76916C11.9768 5.89407 13.8283 6.98077 16.0181 8.15236C14.212 9.15401 11.9768 10.2779 9.58613 11.5033ZM22.9092 1.41994C22.4968 0.876629 21.794 0.453707 21.0457 0.313691C18.8463 -0.103969 5.12518 -0.105157 2.92698 0.313691C2.32693 0.426179 1.7926 0.698079 1.3336 1.12053C-0.600435 2.91561 0.00559941 12.542 0.471777 14.1014C0.667809 14.7763 0.921228 15.2631 1.24038 15.5826C1.65157 16.0051 2.21456 16.2959 2.86123 16.4264C4.67214 16.801 14.0016 17.0104 21.0074 16.4826C21.6529 16.3701 22.2243 16.0699 22.6749 15.6295C24.4631 13.8416 24.3412 3.67456 22.9092 1.41994Z" fill="white"/>
</svg>
