<svg width="32" height="32" viewBox="0 0 32 32" fill="none" xmlns="http://www.w3.org/2000/svg">
<path fill-rule="evenodd" clip-rule="evenodd" d="M24.0394 18.1704C24.4091 18.1704 24.5486 18.1595 24.7286 18.0727C24.9549 17.9647 25.1194 17.6864 25.1194 17.3681C25.1194 17.0487 24.9549 16.771 24.7286 16.663C24.5486 16.5755 24.4091 16.5647 24.0394 16.5647H21.184C20.9166 16.5647 20.5817 16.5647 20.3303 16.8173C20.0777 17.0693 20.0777 17.4035 20.0777 17.6715V22.7178C20.0777 23.1298 20.0829 23.2738 20.1914 23.4893C20.3194 23.747 20.6229 23.9321 20.9834 23.9321C21.3434 23.9321 21.6469 23.747 21.7754 23.4893C21.8834 23.2738 21.8886 23.1298 21.8886 22.7178V21.0613H23.576C23.9469 21.0613 24.0851 21.051 24.2651 20.9641C24.492 20.8555 24.6566 20.5778 24.6566 20.259C24.6566 19.9401 24.492 19.6618 24.2651 19.5544C24.0851 19.4664 23.9469 19.4561 23.576 19.4561H21.8886V18.1704H24.0394ZM15.9034 23.891C17.004 23.891 17.776 23.4687 18.28 22.6561C18.64 22.0698 18.64 21.4933 18.64 20.2275C18.64 18.9624 18.64 18.3864 18.28 17.7995C17.776 16.987 17.004 16.5647 15.9034 16.5647H14.2829C14.0154 16.5647 13.6811 16.5647 13.4291 16.8173C13.1766 17.0693 13.1766 17.4035 13.1766 17.6715V22.7847C13.1766 23.0521 13.1766 23.387 13.4291 23.6384C13.6811 23.891 14.0154 23.891 14.2829 23.891H15.9034ZM8.53829 21.2773H9.63943C11.2646 21.2773 12.1394 20.1253 12.1394 18.9213C12.1394 17.7178 11.2646 16.5647 9.63943 16.5647H7.83372C7.56629 16.5647 7.23143 16.5647 6.97943 16.8173C6.72743 17.0693 6.72743 17.4035 6.72743 17.6715V22.7178C6.72743 23.1298 6.73257 23.2738 6.84057 23.4893C6.96914 23.747 7.27257 23.9321 7.63314 23.9321C7.99314 23.9321 8.29657 23.747 8.42514 23.4893C8.53314 23.2738 8.53829 23.1298 8.53829 22.7178V21.2773ZM20.5594 10.7144H25.7143C26.9714 10.7144 28 11.743 28 13.0001V28.4287C28 29.6858 26.9714 30.7144 25.7143 30.7144H6.28571C5.028 30.7144 4 29.6858 4 28.4287V3.28584C4 2.02869 5.028 1.00012 6.28571 1.00012H15.988C17.2451 1.00012 18.2737 2.02869 18.2737 3.28584V8.42869C18.2737 9.68583 19.3023 10.7144 20.5594 10.7144ZM26.856 8.42862H21.6297C20.9577 8.42862 20.5703 7.96462 20.5703 7.32348V2.14291L26.856 8.42862ZM14.9883 18.1702H15.7809C16.2334 18.1702 16.4803 18.3348 16.6454 18.5816C16.7894 18.7873 16.8403 18.993 16.8403 20.2279C16.8403 21.4725 16.7894 21.6685 16.6454 21.8736C16.4803 22.121 16.2334 22.2856 15.7809 22.2856H14.9883V18.1702ZM9.55735 18.1704H8.53906V19.6727H9.55735C10.0511 19.6727 10.3396 19.307 10.3396 18.9213C10.3396 18.5355 10.0511 18.1704 9.55735 18.1704Z" fill="white"/>
</svg>
