<svg width="88" height="88" viewBox="0 0 88 88" fill="none" xmlns="http://www.w3.org/2000/svg">
<path d="M67.0992 53.8982C67.0992 66.6028 56.7045 76.9976 43.9998 76.9976C31.2951 76.9976 20.9004 66.6028 20.9004 53.8982C20.9004 45.4834 25.3553 33.7687 32.1201 26.8389C32.6151 27.3339 33.4401 27.4988 34.1001 27.4988H53.8995C54.5595 27.4988 55.3845 27.3339 55.8795 26.8389C62.6443 33.7687 67.0992 45.4834 67.0992 53.8982Z" stroke="#E71316" stroke-width="3" stroke-miterlimit="10" stroke-linecap="round" stroke-linejoin="round"/>
<path d="M57.1982 24.2003C57.1982 25.0253 56.8682 25.8503 56.2082 26.5102C56.0432 26.6752 56.0432 26.6752 55.8782 26.8402C55.3832 27.3352 54.5582 27.5002 53.8982 27.5002H34.0987C33.4388 27.5002 32.6138 27.3352 32.1188 26.8402C31.2938 26.1803 30.7988 25.3553 30.7988 24.2003C30.7988 23.3753 31.1288 22.5503 31.7888 21.8904C32.1188 21.5604 32.4488 21.2304 32.9438 21.0654C33.2738 20.9004 33.7688 20.9004 34.0987 20.9004H53.8982C54.3932 20.9004 54.7232 20.9004 55.0532 21.0654C56.3732 21.5604 57.1982 22.7153 57.1982 24.2003Z" stroke="#E71316" stroke-width="3" stroke-miterlimit="10" stroke-linecap="round" stroke-linejoin="round"/>
<path d="M58.8516 11L55.0567 21.0647C54.7267 20.8997 54.3967 20.8997 53.9017 20.8997H34.1022C33.6072 20.8997 33.2772 20.8997 32.9472 21.0647L29.1523 11H58.8516Z" stroke="#E71316" stroke-width="3" stroke-miterlimit="10" stroke-linecap="round" stroke-linejoin="round"/>
<path d="M39.877 56.8683L40.7019 57.6932C41.5269 58.5182 42.5169 58.8482 43.6719 58.8482H44.0018C46.3118 58.8482 48.1267 57.0333 48.1267 54.7233C48.1267 52.4134 46.3118 50.5984 44.0018 50.5984C41.6919 50.5984 39.877 48.7835 39.877 46.4735C39.877 44.1636 41.6919 42.3486 44.0018 42.3486H44.3318C45.4868 42.3486 46.4768 42.8436 47.3018 43.5036L48.1267 44.3286" stroke="#E71316" stroke-width="3" stroke-miterlimit="10" stroke-linecap="round" stroke-linejoin="round"/>
<path d="M44 42.3487V39.0488" stroke="#E71316" stroke-width="3" stroke-miterlimit="10" stroke-linecap="round" stroke-linejoin="round"/>
<path d="M44 58.8477V62.1476" stroke="#E71316" stroke-width="3" stroke-miterlimit="10" stroke-linecap="round" stroke-linejoin="round"/>
</svg>
