<svg width="16" height="16" viewBox="0 0 16 16" fill="none" xmlns="http://www.w3.org/2000/svg">
<path fill-rule="evenodd" clip-rule="evenodd" d="M4.69572 0.0981833C3.39342 0.156943 2.26465 0.475341 1.35319 1.38295C0.438556 2.29532 0.124113 3.42856 0.0652067 4.71732C0.0285891 5.52171 -0.185531 11.5986 0.435373 13.1923C0.854085 14.2675 1.67875 15.0941 2.76374 15.5142C3.27002 15.7111 3.84795 15.8444 4.69572 15.8833C11.7844 16.2041 14.4121 16.0295 15.5201 13.1923C15.7168 12.6873 15.8521 12.1099 15.8895 11.2642C16.2135 4.15737 15.837 2.61692 14.6015 1.38295C13.6216 0.405461 12.469 -0.259937 4.69572 0.0981833ZM4.76098 14.454C3.98485 14.4191 3.56376 14.2898 3.28276 14.181C2.57588 13.9062 2.04493 13.3775 1.7719 12.6747C1.29905 11.4638 1.45588 5.71242 1.49807 4.78178C1.53946 3.87019 1.72414 3.03707 2.36733 2.39389C3.16336 1.59982 4.19182 1.21066 11.1945 1.5267C12.1083 1.56799 12.9434 1.75229 13.5882 2.39389C14.3842 3.18794 14.779 4.22432 14.4574 11.2001C14.4224 11.9743 14.2927 12.3944 14.1836 12.6747C13.4632 14.5209 11.8059 14.7772 4.76098 14.454ZM11.2717 3.7517C11.2717 4.27737 11.6992 4.70482 12.227 4.70482C12.7547 4.70482 13.183 4.27737 13.183 3.7517C13.183 3.22603 12.7547 2.79896 12.227 2.79896C11.6992 2.79896 11.2717 3.22603 11.2717 3.7517ZM3.89013 7.99037C3.89013 10.2423 5.72021 12.0681 7.97776 12.0681C10.2353 12.0681 12.0654 10.2423 12.0654 7.99037C12.0654 5.73842 10.2353 3.91381 7.97776 3.91381C5.72021 3.91381 3.89013 5.73842 3.89013 7.99037ZM5.32458 7.99037C5.32458 6.52931 6.51226 5.34389 7.97776 5.34389C9.44325 5.34389 10.6309 6.52931 10.6309 7.99037C10.6309 9.45223 9.44325 10.638 7.97776 10.638C6.51226 10.638 5.32458 9.45223 5.32458 7.99037Z" fill="#00677F"/>
</svg>
