<svg width="169" height="47" viewBox="0 0 169 47" fill="none" xmlns="http://www.w3.org/2000/svg">
<mask id="mask0_0_205" style="mask-type:luminance" maskUnits="userSpaceOnUse" x="0" y="0" width="170" height="47">
<path d="M169 0H0V46.9169H169V0Z" fill="white"/>
</mask>
<g mask="url(#mask0_0_205)">
<path d="M19.1991 25.2644C19.2017 24.1573 19.0546 23.055 18.7616 21.9874C18.4981 20.9766 18.0565 20.0209 17.4577 19.165C16.8936 18.3418 16.1519 17.6558 15.2872 17.1576C14.3759 16.6484 13.3456 16.3908 12.3019 16.4112C11.2936 16.3535 10.2868 16.5484 9.373 16.9784C8.45917 17.4083 7.66716 18.0597 7.06885 18.8733C5.80967 20.7687 5.19038 23.0174 5.30164 25.2902C5.29229 26.4728 5.44821 27.6508 5.76489 28.7903C6.03395 29.7959 6.50055 30.7378 7.13748 31.5612C7.73401 32.3191 8.48196 32.9443 9.33363 33.397C10.2533 33.8597 11.2726 34.0895 12.3019 34.0662C13.4131 34.1016 14.5131 33.8348 15.4846 33.2941C16.3376 32.7934 17.0698 32.111 17.6292 31.2953C18.2147 30.4394 18.6365 29.4824 18.8731 28.4729C19.1138 27.4204 19.2347 26.3441 19.2334 25.2644H19.1991ZM0 12.7738H5.20727V16.1453H5.30164C6.0125 14.7701 7.16737 13.6757 8.5787 13.0398C9.98907 12.4065 11.5194 12.0846 13.0654 12.0961C14.8371 12.0534 16.5959 12.408 18.2126 13.1341C19.6284 13.7905 20.8732 14.7652 21.85 15.9823C22.8437 17.2329 23.5812 18.6672 24.0204 20.203C24.5124 21.8741 24.7581 23.6081 24.7496 25.3502C24.7263 27.0026 24.481 28.6444 24.0204 30.2315C23.6189 31.7329 22.9474 33.1486 22.0387 34.4093C21.113 35.6856 19.8881 36.7152 18.4717 37.4077C17.0552 38.1003 15.4904 38.4345 13.9147 38.3813C13.1063 38.3826 12.2995 38.3108 11.504 38.1668C10.708 38.024 9.93092 37.7909 9.18779 37.4719C8.45438 37.1494 7.76533 36.7343 7.13748 36.2366C6.52038 35.7581 5.98946 35.1779 5.56758 34.5208H5.47321V46.96H0V12.7738Z" fill="#58595B"/>
</g>
<path d="M43.3912 25.2129C42.4643 25.791 41.4097 26.1327 40.32 26.2081C39.0932 26.3196 37.8751 26.4912 36.6569 26.7142C36.0758 26.8058 35.5023 26.9406 34.9411 27.1174C34.4224 27.2823 33.933 27.5284 33.4913 27.8466C33.0658 28.1566 32.7262 28.5699 32.5048 29.0476C32.2504 29.6251 32.1302 30.2528 32.1531 30.8835C32.133 31.4463 32.3225 31.9966 32.6849 32.4276C33.0322 32.844 33.4653 33.1806 33.9546 33.4142C34.4762 33.6619 35.031 33.8324 35.6017 33.9203C36.1341 34.0151 36.6737 34.0638 37.2145 34.0662C37.8792 34.0611 38.5411 33.9806 39.1876 33.826C39.901 33.6574 40.5801 33.3672 41.195 32.9681C41.8145 32.5899 42.3491 32.0875 42.7649 31.4925C43.1959 30.843 43.4148 30.0756 43.3912 29.2964V25.2129ZM48.8987 32.1617C48.8632 32.6588 48.9516 33.157 49.1561 33.6115C49.2768 33.7671 49.4361 33.8885 49.6181 33.9637C49.8002 34.0389 49.9987 34.0654 50.1941 34.0404H50.7774C51.0376 34.0389 51.2967 34.0073 51.5495 33.9461V37.7464C51.3522 37.8151 51.1034 37.8837 50.8032 37.9695L49.8595 38.1839C49.5421 38.244 49.2161 38.2955 48.8987 38.3298C48.5813 38.3641 48.2982 38.3298 48.0408 38.3298C47.0815 38.3884 46.1241 38.1869 45.2699 37.7464C44.8766 37.4745 44.5445 37.1235 44.2949 36.7157C44.0452 36.308 43.8835 35.8526 43.8201 35.3787C42.687 36.4661 41.306 37.2611 39.7967 37.695C38.3046 38.1593 36.7525 38.4021 35.1899 38.4156C34.0955 38.4228 33.0058 38.2696 31.9558 37.9609C30.972 37.6777 30.0477 37.2185 29.2277 36.6055C28.4349 35.9953 27.7922 35.2118 27.349 34.3149C26.867 33.3154 26.6288 32.2159 26.6541 31.1065C26.6004 29.8 26.8966 28.5028 27.512 27.349C28.0431 26.4138 28.8089 25.6332 29.7339 25.0843C30.6895 24.519 31.7336 24.1187 32.8222 23.9004C33.9632 23.6602 35.1127 23.4715 36.2537 23.3428C37.2488 23.1541 38.1925 23.0168 39.0932 22.931C39.9015 22.8682 40.7025 22.7332 41.4867 22.5278C42.0952 22.3811 42.658 22.0865 43.1252 21.6699C43.3507 21.4202 43.5225 21.127 43.6303 20.8083C43.738 20.4896 43.7792 20.1522 43.7515 19.8169C43.7714 19.2055 43.5939 18.6039 43.2453 18.1012C42.9154 17.6614 42.4862 17.3057 41.9928 17.0632C41.4651 16.8081 40.9006 16.6373 40.32 16.557C39.7511 16.4817 39.1781 16.4416 38.6043 16.4369C37.2676 16.3848 35.9445 16.7215 34.7953 17.4063C34.2926 17.7317 33.8747 18.1722 33.5763 18.6914C33.2779 19.2107 33.1076 19.7935 33.0796 20.3917H27.5892C27.6263 18.9831 28.0219 17.6072 28.7387 16.394C29.3871 15.3495 30.2678 14.4688 31.3124 13.8204C32.4024 13.1595 33.6025 12.7003 34.8554 12.465C36.1924 12.2063 37.5513 12.077 38.9131 12.079C40.1273 12.0782 41.3381 12.2077 42.5247 12.465C43.6545 12.7029 44.7362 13.1292 45.7246 13.7261C46.6641 14.2845 47.4579 15.0577 48.0408 15.9823C48.6427 16.9917 48.9406 18.1534 48.8987 19.328V32.196V32.1617Z" fill="#58595B"/>
<path d="M111.617 23.0424C111.556 22.1853 111.371 21.3416 111.068 20.5374C110.779 19.7662 110.351 19.054 109.807 18.4357C109.268 17.833 108.615 17.3431 107.885 16.9944C107.096 16.6169 106.23 16.4261 105.355 16.4368C104.452 16.4256 103.556 16.5978 102.721 16.943C101.958 17.2658 101.269 17.7418 100.696 18.3413C100.123 18.9552 99.6635 19.6671 99.341 20.4431C99.0067 21.2615 98.8207 22.133 98.792 23.0167L111.617 23.0424ZM98.7491 26.6626C98.7463 27.6102 98.8851 28.5528 99.1609 29.4593C99.4085 30.3222 99.8255 31.1271 100.388 31.827C100.962 32.5226 101.687 33.0798 102.507 33.457C103.443 33.8807 104.464 34.0861 105.492 34.0575C106.864 34.1262 108.223 33.7632 109.378 33.0194C110.422 32.2444 111.191 31.1565 111.574 29.914H116.782C116.268 32.4435 114.823 34.6878 112.732 36.2021C111.716 36.9382 110.582 37.4953 109.378 37.8493C108.116 38.2204 106.807 38.4054 105.492 38.3983C103.709 38.433 101.938 38.1061 100.285 37.4375C98.8238 36.8288 97.5146 35.9062 96.45 34.7352C95.3789 33.5368 94.5747 32.1244 94.0908 30.5917C93.5429 28.8756 93.2735 27.0828 93.293 25.2815C93.2909 23.5664 93.581 21.8634 94.1509 20.2458C94.6866 18.7071 95.504 17.2816 96.5615 16.0422C97.6158 14.8258 98.9134 13.8439 100.37 13.1598C101.941 12.4285 103.657 12.0647 105.389 12.096C107.222 12.0678 109.035 12.4921 110.665 13.3313C112.185 14.1145 113.512 15.2249 114.551 16.5827C115.6 17.9707 116.362 19.5545 116.79 21.2409C117.259 23.008 117.381 24.8491 117.15 26.6626H98.7491Z" fill="#58595B"/>
<path d="M132.001 34.0405C133.111 34.0676 134.209 33.8013 135.183 33.2685C136.068 32.7703 136.827 32.0781 137.405 31.2439C137.993 30.385 138.426 29.4298 138.683 28.4215C138.959 27.3743 139.097 26.2958 139.095 25.2131C139.093 24.139 138.955 23.0696 138.683 22.0304C138.429 21.0209 137.996 20.0651 137.405 19.208C136.819 18.3877 136.061 17.7055 135.183 17.2091C134.199 16.702 133.108 16.4374 132.001 16.4374C130.893 16.4374 129.802 16.702 128.818 17.2091C127.94 17.7055 127.182 18.3877 126.596 19.208C126.005 20.0651 125.572 21.0209 125.318 22.0304C125.054 23.0707 124.918 24.1396 124.915 25.2131C124.914 26.2952 125.049 27.3732 125.318 28.4215C125.576 29.4298 126.008 30.385 126.596 31.2439C127.174 32.0781 127.934 32.7703 128.818 33.2685C129.792 33.8013 130.89 34.0676 132.001 34.0405ZM132.001 38.3814C130.177 38.4142 128.365 38.0786 126.673 37.3948C125.175 36.7788 123.826 35.8485 122.718 34.6668C121.619 33.4719 120.78 32.0607 120.256 30.5233C119.671 28.8147 119.381 27.019 119.399 25.2131C119.383 23.4269 119.673 21.6513 120.256 19.9629C120.778 18.4219 121.616 17.0075 122.718 15.8108C123.826 14.6291 125.175 13.6988 126.673 13.0828C130.103 11.7672 133.898 11.7672 137.328 13.0828C138.826 13.6988 140.175 14.6291 141.283 15.8108C142.385 17.0075 143.224 18.4219 143.745 19.9629C144.328 21.6513 144.618 23.4269 144.603 25.2131C144.62 27.019 144.33 28.8147 143.745 30.5233C143.221 32.0607 142.383 33.4719 141.283 34.6668C140.175 35.8485 138.826 36.7788 137.328 37.3948C135.637 38.0786 133.825 38.4142 132.001 38.3814Z" fill="#58595B"/>
<path d="M147.099 12.7735H152.315V16.4366L152.409 16.531C153.208 15.1869 154.336 14.0681 155.686 13.2797C157.048 12.4885 158.598 12.0795 160.173 12.0958C162.52 11.9651 164.83 12.7249 166.641 14.2233C168.214 15.636 169 17.7578 169 20.5887V37.7461H163.501V22.03C163.433 20.074 163.021 18.65 162.249 17.7406C161.779 17.2682 161.211 16.9043 160.586 16.6746C159.96 16.4449 159.292 16.3549 158.628 16.4109C157.767 16.3979 156.912 16.5706 156.123 16.9171C155.404 17.2422 154.763 17.7192 154.245 18.3154C153.717 18.9362 153.307 19.6486 153.035 20.4172C152.739 21.2426 152.591 22.1138 152.598 22.9908V37.7461H147.099V12.7735Z" fill="#58595B"/>
<path d="M85.2989 37.7463H90.8235V20.5889C90.8235 14.9698 87.3921 12.0617 81.9532 12.0617C80.4668 12.0337 78.9976 12.3835 77.6833 13.0782C76.369 13.7729 75.2524 14.7897 74.4382 16.0336H74.3439V5.60189V0.454672V0L68.802 2.83955V4.55529V7.28332V8.26129V37.7463H74.3267V22.9909C74.3267 19.3107 76.703 16.4025 80.3833 16.4025C83.6346 16.4025 85.1788 18.1182 85.2817 22.0215V37.7463H85.2989Z" fill="#58595B"/>
<path d="M62.3595 38.0124C63.5777 38.0124 64.7358 37.8237 65.9454 37.7207V33.4571C65.1819 33.6209 64.4007 33.6872 63.6206 33.6544C61.1499 33.6544 60.9612 32.4877 60.9612 30.2229V16.8316H65.9454V12.7138H60.9612V6.42561L55.4279 9.28231V12.7138H51.2587V16.8316H55.4279V31.6213C55.5309 35.7905 56.5946 38.0124 62.3595 38.0124Z" fill="#58595B"/>
</svg>
