<svg width="18" height="18" viewBox="0 0 18 18" fill="none" xmlns="http://www.w3.org/2000/svg">
<path d="M7.88935 0.655537C8.37183 -0.218535 9.62817 -0.218536 10.1107 0.655536C10.4682 1.30337 11.3021 1.5089 11.9198 1.10146C12.7532 0.551725 13.8657 1.13558 13.8867 2.13375C13.9023 2.87356 14.5451 3.44308 15.2814 3.36936C16.2748 3.2699 16.9885 4.30386 16.5433 5.19746C16.2132 5.85976 16.5178 6.66279 17.204 6.93969C18.1299 7.3133 18.2813 8.56048 17.4717 9.1448C16.8717 9.57788 16.7682 10.4305 17.2471 10.9945C17.8933 11.7556 17.4478 12.9303 16.4595 13.0715C15.7269 13.1761 15.239 13.8829 15.401 14.605C15.6195 15.5792 14.6791 16.4123 13.7383 16.078C13.0411 15.8302 12.2806 16.2293 12.0884 16.9439C11.8291 17.908 10.6093 18.2087 9.93166 17.4755C9.42942 16.9321 8.57058 16.9321 8.06834 17.4755C7.3907 18.2087 6.17086 17.908 5.91158 16.9439C5.71941 16.2293 4.95895 15.8302 4.26169 16.078C3.32094 16.4123 2.38055 15.5792 2.59902 14.605C2.76095 13.8829 2.27308 13.1761 1.54054 13.0715C0.552176 12.9303 0.106668 11.7556 0.752851 10.9945C1.23178 10.4305 1.12826 9.57788 0.528252 9.1448C-0.28129 8.56048 -0.129854 7.3133 0.796001 6.93969C1.48221 6.66279 1.78676 5.85976 1.45674 5.19746C1.01148 4.30386 1.72516 3.2699 2.71859 3.36936C3.45488 3.44308 4.09773 2.87356 4.11331 2.13375C4.13432 1.13558 5.24676 0.551725 6.08017 1.10146C6.69787 1.5089 7.53175 1.30337 7.88935 0.655537Z" fill="#00A3FF"/>
</svg>
