<svg width="128" height="28" viewBox="0 0 128 28" fill="none" xmlns="http://www.w3.org/2000/svg">
<path fill-rule="evenodd" clip-rule="evenodd" d="M12.7667 3.30001V0.600006H0.533325V3.33334H4.73333V15.1667H8.53333V3.30001H12.7667ZM59.8333 15.1333C59.7333 14.1667 59.6667 13.4333 59.6667 12.9V8.00001C59.6667 5.96667 58.1667 4.70001 56.2 4.70001C54.7667 4.73334 53.5333 5.36667 52.8333 6.50001C52.4 5.36667 51.1667 4.76667 50 4.76667C48.6 4.76667 47.4 5.23334 46.7333 6.50001L46.6667 5.00001H43.2V15.1333H46.8V9.00001C46.8 8.66667 46.6667 6.93334 48.3 6.93334C49.4 6.93334 49.6667 7.93334 49.6667 8.90001V15.1H53.2333V9.00001C53.2333 8.66667 53.1 6.93334 54.7333 6.93334C55.8333 6.93334 56.1 7.93334 56.1 8.90001V15.1L59.8333 15.1333ZM42.4 7.96667V4.86667C40.8333 4.83334 39.6667 5.36667 39.2 6.90001L39.1333 4.96667H35.5333C35.6 5.80001 35.6 6.90001 35.6 7.56667V15.1H39.2V10.6667C39.2 9.00001 39.7 7.96667 41.6667 7.93334C41.9 7.93334 42.1333 7.93334 42.4 7.96667ZM66.0333 4.70001C62.7333 4.70001 60.5667 6.53334 60.5667 10.0333C60.5667 13.6333 62.7333 15.4 66.0333 15.4C69.3333 15.4 71.5 13.6 71.5 10.0333C71.4667 6.53334 69.3 4.70001 66.0333 4.70001ZM66.0333 6.83334C67.5333 6.83334 67.8333 8.40001 67.8333 9.96667C67.8333 11.8333 67.5 13.2667 66.0333 13.2667C64.5667 13.2667 64.2333 11.8 64.2333 9.96667C64.2333 8.36667 64.5 6.80001 66.0333 6.83334ZM23.7667 15.1333C23.6667 14.1667 23.6333 13.4667 23.6333 12.9V8.00001C23.6333 5.96667 22.1333 4.70001 20.1333 4.70001C19.5333 4.70001 18.9333 4.80001 18.4333 5.03334C17.9667 5.26667 17.5333 5.56667 17.1333 6.06667V0.600006H13.6V15.1333H17.2V9.00001C17.2 8.66667 17.0667 6.93334 18.7 6.93334C19.8333 6.93334 20.0667 7.93334 20.0667 8.90001V15.1L23.7667 15.1333ZM34.7333 10.7333C34.7667 7.10001 33.6667 4.70001 29.6 4.70001C26.4 4.70001 24.4667 6.66667 24.4667 9.76667C24.4667 13.5667 25.8333 15.4 29.7667 15.4C31 15.4 32.1 15.1333 32.9 14.5667C33.8 13.9667 34.5 13.0667 34.6 11.8H31.2667C31.1667 12.7333 30.6333 13.3667 29.5667 13.3667C28.2 13.3667 27.9 12.0667 27.9333 10.8H34.7333V10.7333ZM31.3 8.80001H27.9667C28.0333 7.73334 28.3 6.63334 29.6333 6.56667C30.2333 6.53334 30.6333 6.83334 30.9 7.26667C31.2 7.70001 31.3 8.26667 31.3 8.80001Z" fill="#EE3134"/>
<path fill-rule="evenodd" clip-rule="evenodd" d="M127.533 7.76668V4.66668C125.967 4.63335 124.8 5.16668 124.333 6.70001L124.267 4.93335H120.667C120.733 5.76668 120.733 6.86668 120.733 7.53335V15.0667H124.333V10.6667C124.333 9.00001 124.833 7.80001 126.8 7.73335C127.033 7.76668 127.267 7.76668 127.533 7.76668ZM108.9 15.1333C108.8 14.1667 108.767 13.4667 108.767 12.9V8.00001C108.767 5.96668 107.267 4.70001 105.267 4.70001C104.667 4.70001 104.133 4.80001 103.6 5.03335C103.133 5.26668 102.667 5.56668 102.267 6.06668V0.600014H98.6667V15.1333H102.267V9.00001C102.267 8.66668 102.133 6.93335 103.767 6.93335C104.9 6.93335 105.133 7.93335 105.133 8.90001V15.1L108.9 15.1333ZM97.8 12.1C97.8 10.5333 96.9667 9.76668 95.8333 9.33335C93.6667 8.56668 92.0667 8.53335 92.0667 7.73335C92.0667 7.13335 92.4 6.80001 93 6.80001C93.4667 6.80001 93.7667 6.93335 93.9667 7.13335C94.1333 7.33335 94.2334 7.66668 94.2334 8.10001H97.6333C97.5667 5.43335 95.4667 4.73335 93.1667 4.73335C91.2 4.73335 88.6667 5.43335 88.6667 7.86668C88.6667 11.4 94.4 10.5 94.4 12.3667C94.4 13.0333 93.8667 13.3333 93.1667 13.3333C92.7667 13.3333 92.4334 13.1333 92.2334 12.8333C92.0334 12.5667 91.9667 12.2 92 11.8333H88.5667C88.5 14.8667 90.7334 15.4 93.2334 15.4C95.5667 15.4 97.8 14.5667 97.8 12.1ZM119.833 10.7333C119.867 7.10001 118.767 4.70001 114.7 4.70001C111.5 4.70001 109.567 6.66668 109.567 9.76668C109.567 13.5667 110.9 15.4 114.867 15.4C116.1 15.4 117.2 15.1333 118 14.5667C118.9 13.9667 119.6 13.0667 119.7 11.8H116.333C116.233 12.7333 115.7 13.3667 114.633 13.3667C113.267 13.3667 112.967 12.0667 113 10.8H119.867V10.7333H119.833ZM116.467 8.80001H113.133C113.2 7.73335 113.467 6.63335 114.8 6.56668C115.4 6.53335 115.8 6.83335 116.067 7.26668C116.333 7.70001 116.467 8.26668 116.467 8.80001ZM87.7 15.1333V4.96668H84.1V15.1L87.7 15.1333ZM83 3.23335L83.8333 0.566681H74.2V15.1H78V9.40001H81.0667L81.9 6.73335H78V3.23335H83ZM87.7 3.23335L88.5667 0.566681H85.0333L84.1667 3.23335H87.7Z" fill="#EE3134"/>
<path fill-rule="evenodd" clip-rule="evenodd" d="M33.4 27.6V19.4H34.7V27.6334H33.4V27.6ZM121.867 27.7334C119.133 27.7334 117.067 26.2 117.067 23.5334C117.067 20.8334 119.367 19.1667 121.967 19.1667C122.9 19.1667 123.9 19.4667 124.567 19.9L123.9 20.7C123.333 20.3667 122.7 20.1667 122 20.1667C121 20.1667 120.033 20.4667 119.4 21.1667C118.867 21.7667 118.567 22.5 118.567 23.5667C118.567 24.7334 118.933 25.3667 119.533 25.9667C120.167 26.6 121.133 26.7667 122.067 26.7667C122.833 26.7667 123.567 26.5 124.167 26.1667L124.8 26.9334C124.1 27.4 122.967 27.7334 121.867 27.7334ZM108.067 27.6V19.4H109.367V27.6334H108.067V27.6ZM78.3334 20.3667H75.2667V27.6334H74V20.3667H70.9333V19.3667H78.5L78.3334 20.3667ZM9.90001 27.3C9.26667 27.6 8.50001 27.7667 7.56667 27.7667C6.4 27.7667 5.2 27.5 4.23334 27.0334L4.76667 26.1C5.73334 26.5667 6.63334 26.8 7.63334 26.8C8.3 26.8 8.73334 26.7 9.13334 26.4667C9.60001 26.2 9.86667 25.8667 9.86667 25.4C9.86667 24.7 9.33334 24.2667 8.06667 24L6.73334 23.7C5.4 23.4 4.56667 22.5667 4.56667 21.5667C4.56667 20.1667 5.93334 19.1667 7.93334 19.1667C9.1 19.1667 10.3 19.4667 11.1 19.9667L10.5 20.8334C9.70001 20.4 8.86667 20.1667 8.00001 20.1667C6.83334 20.1667 6 20.6334 6 21.4C6 22 6.5 22.3667 7.63334 22.6334L8.86667 22.9334C9.56667 23.1 10.3 23.4 10.7 23.7667C11.1 24.1334 11.3333 24.7 11.3333 25.2334C11.3667 26.0667 10.8333 26.8667 9.90001 27.3ZM62.6667 27.6L59.4 23.2C58.8 22.3667 57.7333 20.7667 57.7333 20.7667C57.7333 20.7667 57.8334 22.1667 57.8667 23.3667L57.9 27.6H56.6V19.4H58.1667L61.4667 23.9C62.1 24.7667 63 26.1667 63 26.1667C63 26.1667 62.8 24.6334 62.8 23.5667L62.7667 19.4334H64.0667V27.6667L62.6667 27.6ZM85.2334 27.6V19.4H86.5334V27.6334H85.2334V27.6ZM100.867 20.3667H96.3334V22.8H100.167V23.7667H96.3334V27.6334H95.0334V19.4H101.033L100.867 20.3667ZM43.2333 27.6V19.4H49.3333L49.1667 20.4H44.5667V22.8667H48.4667V23.8667H44.5667V26.6667H49.4667V27.6667H43.2333V27.6ZM23.2333 27.7334C20.5 27.7334 18.4333 26.2 18.4333 23.5334C18.4333 20.8334 20.7333 19.1667 23.3333 19.1667C24.2667 19.1667 25.2667 19.4667 25.9333 19.9L25.2667 20.7C24.7 20.3667 24.0667 20.1667 23.3667 20.1667C22.3667 20.1667 21.4 20.4667 20.7333 21.1667C20.2 21.7667 19.9 22.5 19.9 23.5667C19.9 24.7334 20.2667 25.3667 20.8667 25.9667C21.5 26.6 22.4667 26.7667 23.4 26.7667C24.1667 26.7667 24.9 26.5 25.5 26.1667L26.1333 26.9334C25.4667 27.4 24.3333 27.7334 23.2333 27.7334Z" fill="black"/>
</svg>
