<svg width="35" height="31" viewBox="0 0 35 31" fill="none" xmlns="http://www.w3.org/2000/svg">
<path d="M26.2499 29.0827H26.124C24.4873 28.768 22.5359 28.0126 22.5359 25.9982C22.5359 25.4946 22.5359 25.1799 22.5359 24.991H12.4639V25.9982C12.4639 28.2014 10.1977 28.8939 8.81283 29.1457C8.30923 29.2086 8.12038 29.5234 8.18333 29.8381C8.18333 30.0899 8.43513 30.4047 8.93873 30.4047H26.3128C26.8164 30.4047 27.0053 30.1529 27.0682 29.9011C26.9423 29.5234 26.7535 29.2086 26.2499 29.0827Z" fill="#E71316"/>
<path d="M31.8525 0H3.14748C1.38489 0 0 1.38489 0 3.14748V20.4586C0 22.2212 1.38489 23.6061 3.14748 23.6061H31.8525C33.6151 23.6061 35 22.2212 35 20.4586V3.14748C35 1.44784 33.5522 0 31.8525 0ZM31.5378 18.1295C31.5378 18.4442 31.223 18.759 30.9083 18.759H4.09173C3.77698 18.759 3.46223 18.4442 3.46223 18.1295V4.02878C3.46223 3.71403 3.77698 3.39928 4.09173 3.39928H30.9083C31.223 3.39928 31.5378 3.71403 31.5378 4.02878V18.1295Z" fill="#E71316"/>
<path d="M27.6978 6.60971V6.42086C27.6349 6.16906 27.5719 6.04317 27.446 5.91727C27.3201 5.79137 27.1942 5.66547 27.1313 5.60252C27.0683 5.53957 27.0054 5.47662 26.8795 5.41367C26.7536 5.35072 26.6277 5.28777 26.4388 5.28777C26.1871 5.28777 25.9982 5.35072 25.8094 5.47662C25.6205 5.60252 25.5576 5.72842 25.4317 5.85432C25.4317 5.85432 24.6763 6.79856 23.795 7.93165C22.9766 9.0018 22.0324 10.1978 21.5288 10.8903L16.9964 8.4982C16.7446 8.3723 16.4928 8.30935 16.1781 8.30935C15.6115 8.30935 15.045 8.56115 14.7302 9.06475L11.5198 13.6601H8.3723C8.18345 13.6601 7.99461 13.723 7.86871 13.786C7.61691 13.9119 7.49101 14.1007 7.42806 14.3525C7.36511 14.5414 7.36511 14.7302 7.36511 14.9191C7.36511 15.1709 7.36511 15.4227 7.55396 15.7374C7.61691 15.8633 7.74281 15.9892 7.93165 16.0522C8.05755 16.1151 8.2464 16.1781 8.43525 16.1781H12.0234C12.3381 16.1781 12.6529 16.0522 12.9047 15.9263C13.1565 15.7374 13.3453 15.5486 13.5342 15.2968C13.5342 15.2968 15.6115 12.4011 16.4928 11.0791L20.9622 13.4083C21.0881 13.4712 21.214 13.5342 21.4029 13.5971C21.5917 13.6601 21.7176 13.6601 21.9065 13.6601C22.1583 13.6601 22.4101 13.5971 22.5989 13.4712C22.7878 13.3453 22.9766 13.1565 23.1025 13.0306L27.509 7.36511C27.5719 7.17626 27.6978 6.92446 27.6978 6.60971Z" fill="#E71316"/>
</svg>
