<svg width="32" height="32" viewBox="0 0 32 32" fill="none" xmlns="http://www.w3.org/2000/svg">
<path d="M23.7341 20.877C23.3442 20.9921 22.7717 21.005 22.1579 20.916C21.4992 20.8205 20.8273 20.6191 20.1669 20.3224C21.3446 20.151 22.2582 20.2038 23.0396 20.4807C23.2247 20.5463 23.5288 20.7217 23.7341 20.877ZM17.1634 19.7967C17.1155 19.8098 17.0683 19.8221 17.0213 19.8351C16.7044 19.9214 16.3961 20.0055 16.099 20.0804L15.6983 20.182C14.8924 20.3859 14.0684 20.5942 13.2546 20.8423C13.5639 20.0965 13.8512 19.3424 14.1326 18.6051C14.3409 18.0594 14.5536 17.5018 14.7736 16.9515C14.8852 17.1358 15.0017 17.3202 15.1229 17.5051C15.6751 18.3461 16.3691 19.1236 17.1634 19.7967ZM15.1134 11.3861C15.1656 12.3064 14.9671 13.1918 14.6758 14.0411C14.317 12.9909 14.1498 11.8311 14.5983 10.8948C14.7134 10.6548 14.8076 10.5265 14.8687 10.4595C14.9631 10.6053 15.0873 10.9314 15.1134 11.3861ZM10.906 23.0443C10.7044 23.405 10.4986 23.7426 10.2877 24.0614C9.77875 24.8284 8.94636 25.6497 8.51875 25.6497C8.47667 25.6497 8.42575 25.6429 8.35134 25.5643C8.30344 25.5141 8.29577 25.4781 8.29809 25.429C8.31251 25.147 8.68615 24.6447 9.22743 24.179C9.71873 23.7566 10.274 23.381 10.906 23.0443ZM25.0957 20.9169C25.0303 19.9775 23.4491 19.3749 23.4335 19.3693C22.8222 19.1526 22.1581 19.0473 21.4034 19.0473C20.5955 19.0473 19.7244 19.1642 18.6058 19.4255C17.6104 18.7199 16.7506 17.8366 16.1082 16.8586C15.8245 16.4266 15.5695 15.9953 15.3471 15.574C15.8899 14.2763 16.3786 12.881 16.2898 11.3183C16.2182 10.0653 15.6531 9.2236 14.8847 9.2236C14.3576 9.2236 13.9038 9.614 13.5347 10.385C12.8764 11.759 13.0495 13.517 14.0488 15.6147C13.6889 16.4601 13.3545 17.3365 13.0308 18.1849C12.6281 19.2398 12.2131 20.3282 11.7455 21.3636C10.4339 21.8826 9.3564 22.5119 8.45843 23.2846C7.87018 23.7898 7.161 24.5622 7.12052 25.3686C7.10076 25.7483 7.23097 26.0966 7.49557 26.3756C7.77668 26.6718 8.12985 26.8278 8.51818 26.8283C9.80073 26.8283 11.0351 25.0662 11.2693 24.7127C11.7406 24.0023 12.1817 23.2099 12.6139 22.2959C13.7026 21.9025 14.8627 21.6088 15.9872 21.325L16.3899 21.2226C16.6927 21.1457 17.0073 21.0606 17.33 20.9722C17.6715 20.8799 18.0229 20.7842 18.38 20.6932C19.5347 21.4275 20.7763 21.9065 21.9873 22.0822C23.0073 22.2306 23.9131 22.1446 24.5263 21.8249C25.0781 21.5375 25.1085 21.0941 25.0957 20.9169ZM27.5796 28.9942C27.5796 30.7146 26.0634 30.8206 25.7575 30.8241H6.19511C4.48101 30.8241 4.37779 29.2974 4.37452 28.9942L4.37429 3.00514C4.37429 1.28312 5.89332 1.17872 6.19487 1.17526H19.4096L19.4167 1.18224V6.33917C19.4167 7.3741 20.0423 9.33352 22.4119 9.33352H27.5355L27.5795 9.37744L27.5796 28.9942ZM26.365 8.15808H22.4127C20.6991 8.15808 20.5955 6.63975 20.5931 6.33934V2.36246L26.365 8.15808ZM28.755 28.9942V8.89256L20.5931 0.696818V0.658686H20.5541L19.8986 0H6.19515C5.15885 0 3.19922 0.628269 3.19922 3.00569V28.9948C3.19922 30.0342 3.82558 32 6.19515 32H25.7593C26.7954 31.9998 28.755 31.3714 28.755 28.9942Z" fill="white"/>
</svg>
