<svg width="220" height="48" viewBox="0 0 220 48" fill="none" xmlns="http://www.w3.org/2000/svg">
<path d="M0 37.293H5.95133V10.2988H0V37.293Z" fill="#E51E25"/>
<path d="M9.57715 37.2931H15.5285V21.3672C15.5285 17.3997 18.087 14.2664 22.0175 14.2664C25.5215 14.2664 27.1901 16.1204 27.2921 20.329V37.2931H33.2527V18.7531C33.2527 12.6905 29.5447 9.55728 23.6953 9.55728C21.9955 9.54789 20.3231 9.98685 18.847 10.8299C17.3709 11.6729 16.1431 12.8903 15.2875 14.3591L15.1855 14.2572V10.2989H9.57715V37.2931Z" fill="#E51E25"/>
<path d="M44.1167 37.293H50.8004L60.4597 10.2988H54.2952L47.7227 31.0265H47.6115L40.7703 10.2988H34.2998L44.1167 37.293Z" fill="#E51E25"/>
<path d="M62.9341 37.293H68.8854V10.2988H62.9341V37.293Z" fill="#E51E25"/>
<path d="M71.8716 14.739H76.3583V30.6649C76.4602 35.1516 77.6097 37.5618 83.8299 37.5618C85.1277 37.5618 86.3884 37.3485 87.6862 37.2466V32.6116C86.8643 32.7882 86.0232 32.8599 85.1833 32.8248C82.5228 32.8248 82.3096 31.5641 82.3096 29.1168V14.739H87.714V10.2987H82.3374V3.39258L76.3583 6.48875V10.2894H71.8716V14.739Z" fill="#E51E25"/>
<path d="M91.4863 37.2929H97.4469V24.454C97.4469 18.4934 100.682 15.184 104.752 15.184C105.609 15.2154 106.464 15.3021 107.31 15.4436V9.69619C106.568 9.58223 105.818 9.52952 105.067 9.5386C101.414 9.5386 97.8641 12.6255 97.1781 15.4899H97.0761V10.2987H91.5141V37.2929H91.4863Z" fill="#E51E25"/>
<mask id="mask0_0_141" style="mask-type:luminance" maskUnits="userSpaceOnUse" x="-1" y="0" width="221" height="48">
<path d="M219.523 0H-0.351562V48H219.523V0Z" fill="white"/>
</mask>
<g mask="url(#mask0_0_141)">
<path d="M128.993 23.768C128.993 28.4679 126.648 33.3254 121.317 33.3254C115.987 33.3254 113.67 28.4679 113.67 23.768C113.67 19.0681 116.024 14.2663 121.345 14.2663C126.666 14.2663 129.021 19.1238 129.021 23.768H128.993ZM134.953 23.768C134.953 15.5177 129.985 9.56641 121.317 9.56641C112.65 9.56641 107.69 15.5177 107.69 23.768C107.69 32.0183 112.65 38.0067 121.317 38.0067C129.985 38.0067 134.991 32.0739 134.991 23.768H134.953Z" fill="#E51E25"/>
<path d="M157.961 23.1747C157.961 27.8097 155.978 32.5745 150.703 32.5745C145.744 32.5745 143.602 28.0878 143.602 23.6475C143.602 19.2072 145.456 14.2477 150.703 14.2477C155.95 14.2477 157.961 18.5398 157.961 23.1747ZM163.913 35.8654V10.2987H157.961V14.0067H157.859C156.339 10.9754 153.224 9.56641 149.869 9.56641C142.193 9.56641 137.651 15.8329 137.651 23.0913C137.651 30.8225 141.201 37.2929 149.757 37.2929C151.408 37.2949 153.03 36.8559 154.454 36.0215C155.878 35.1871 157.054 33.9875 157.859 32.5467H157.961V36.6719C157.961 41.1122 155.82 43.5595 151.018 43.5595C147.987 43.5595 145.271 42.9847 144.529 39.5919H138.578C139.097 45.914 145.206 47.9998 150.629 47.9998C159.139 47.9998 163.894 43.9766 163.894 35.8839L163.913 35.8654Z" fill="#E51E25"/>
</g>
<path d="M187.189 21.4227H173.284C173.442 17.3995 176.26 14.2663 180.385 14.2663C184.51 14.2663 186.967 17.6591 187.171 21.4227H187.189ZM180.413 9.56641C172.367 9.56641 167.352 16.1481 167.352 23.8236C167.352 32.1666 172.107 38.0253 180.571 38.0253C186.466 38.0253 191.481 34.7344 192.788 28.8387H187.143C186.105 31.8144 184.01 33.3254 180.571 33.3254C175.602 33.3254 173.312 29.6174 173.312 25.3347H193.15C194.142 17.242 188.923 9.57568 180.413 9.57568V9.56641Z" fill="#E51E25"/>
<path d="M195.82 37.2931H201.735V21.3672C201.735 17.3997 204.293 14.2664 208.224 14.2664C211.728 14.2664 213.396 16.1204 213.498 20.329V37.2931H219.449V18.7531C219.449 12.6905 215.741 9.55725 209.892 9.55725C208.192 9.54881 206.52 9.98816 205.044 10.8311C203.569 11.6741 202.341 12.8909 201.484 14.3591L201.382 14.2571V10.2988H195.746V37.2931H195.82Z" fill="#E51E25"/>
<path d="M70.6652 0L68.8947 5.6825L62.9248 5.67323L64.6861 0H70.6652Z" fill="#E51E25"/>
<path d="M7.74972 0L5.97915 5.6825L0.00927734 5.67323L1.77058 0H7.74972Z" fill="#E51E25"/>
</svg>
