<svg width="86" height="86" viewBox="0 0 86 86" fill="none" xmlns="http://www.w3.org/2000/svg">
<g clip-path="url(#clip0_0_326)">
<mask id="mask0_0_326" style="mask-type:luminance" maskUnits="userSpaceOnUse" x="-2" y="12" width="64" height="63">
<path d="M-1.0078 12.0937H61.4761V74.5776H-1.0078V12.0937Z" fill="white"/>
</mask>
<g mask="url(#mask0_0_326)">
<path d="M22.1654 55.696C25.0367 57.2034 26.922 57.841 29.9964 57.841C34.752 57.841 37.3334 55.9264 37.3334 52.6509C37.3334 51.2294 36.9272 50.0119 36.0866 49.1996C35.3612 48.5035 34.3166 48.0691 32.3737 47.7791L27.4433 47.0527C23.9052 46.5314 21.3541 45.4584 19.4395 43.6024C17.4381 41.6596 16.4823 38.962 16.4823 35.5108C16.4823 29.2468 20.4256 24.5488 27.1534 23.302V21.9381C27.1534 20.4307 27.2119 19.8508 27.5888 19.1254C28.0828 18.2272 29.0679 17.6462 30.3156 17.6462C31.5614 17.6462 32.5485 18.2272 33.0415 19.1254C33.4174 19.8508 33.476 20.4307 33.476 21.9381V23.0989C36.028 23.3596 38.0578 23.9981 40.2047 24.9832C42.1475 25.8824 43.5105 27.3039 43.5105 29.0144C43.5105 29.8267 43.1912 30.7552 42.581 31.5089C42.0021 32.1757 41.2201 32.6111 40.1744 32.6111C39.2186 32.6111 38.1164 32.1757 37.1586 31.6827C34.956 30.5228 33.0415 30.0591 30.6339 30.0591C26.3713 30.0591 24.283 32.4071 24.283 35.047C24.283 36.3231 24.6013 37.396 25.4722 38.2074C26.342 38.9913 27.3867 39.5127 29.3003 39.8036L34.1428 40.4988C37.9133 41.0504 40.3209 42.0648 42.0607 43.7177C44.2652 45.7767 45.2512 48.7642 45.2512 52.4478C45.2512 59.2918 40.3492 63.6119 33.476 64.6849V67.1501C33.476 68.6585 33.4174 69.2667 33.0415 69.9628C32.5485 70.863 31.5614 71.4429 30.3156 71.4429C29.0679 71.4429 28.0828 70.863 27.5888 69.9628C27.2119 69.2667 27.1534 68.6585 27.1534 67.1501V64.889C24.2244 64.6566 22.0775 64.0484 19.6426 62.8582C17.0036 61.6115 15.5245 60.4516 15.5245 58.1309C15.5245 57.262 15.9307 56.1881 16.6268 55.492C17.2936 54.8242 18.0473 54.5938 18.8889 54.5938C19.8174 54.5938 20.6287 54.8837 22.1654 55.696Z" fill="#E71316"/>
</g>
</g>
<defs>
<clipPath id="clip0_0_326">
<rect width="85.3333" height="85.3333" fill="white" transform="scale(1.0078)"/>
</clipPath>
</defs>
</svg>
