<svg width="20" height="20" viewBox="0 0 20 20" fill="none" xmlns="http://www.w3.org/2000/svg">
<path fill-rule="evenodd" clip-rule="evenodd" d="M0.375015 6.61471H4.5105V19.9206H0.375015V6.61471ZM2.4434 0.000429781C3.76574 0.000429781 4.84012 1.07481 4.84012 2.39715C4.84012 3.72078 3.76574 4.79558 2.4434 4.79558C2.12473 4.80162 1.80805 4.74406 1.51188 4.62628C1.21571 4.5085 0.945987 4.33286 0.718486 4.10963C0.490986 3.88639 0.310271 3.62005 0.186905 3.32616C0.0635399 3.03227 0 2.71674 0 2.39801C0 2.07927 0.0635399 1.76374 0.186905 1.46985C0.310271 1.17596 0.490986 0.909618 0.718486 0.686385C0.945987 0.463151 1.21571 0.287511 1.51188 0.169731C1.80805 0.0519512 2.12473 -0.00560419 2.4434 0.000429781ZM7.10447 6.61428H11.0711V8.43256H11.1261C11.6783 7.38655 13.0273 6.28381 15.0389 6.28381C19.2264 6.28381 20 9.03979 20 12.6226V19.9206H15.8671V13.4499C15.8671 11.9071 15.8387 9.92207 13.7183 9.92207C11.5666 9.92207 11.2361 11.6028 11.2361 13.3386V19.9206H7.10404V6.61471L7.10447 6.61428Z" fill="white"/>
</svg>
