<svg width="86" height="86" viewBox="0 0 86 86" fill="none" xmlns="http://www.w3.org/2000/svg">
<g clip-path="url(#clip0_0_355)">
<mask id="mask0_0_355" style="mask-type:luminance" maskUnits="userSpaceOnUse" x="-2" y="8" width="72" height="71">
<path d="M-1.0078 8.06244H69.5385V78.6088H-1.0078V8.06244Z" fill="white"/>
</mask>
<g mask="url(#mask0_0_355)">
<path d="M38.9941 21.4814C37.8675 21.1408 36.4963 20.9457 35.2386 20.9457C34.0426 20.9457 32.3649 21.1199 31.1755 21.9477C29.9057 22.8306 21.6507 29.117 21.5669 29.1798C20.7093 29.8236 20.2243 30.6172 20.156 31.4792C20.0932 32.2982 20.4139 33.137 21.0378 33.7808C21.751 34.5182 22.7882 34.6284 23.3416 34.6284C24.2389 34.6284 25.0358 34.3617 25.4249 34.0971C26.8072 33.158 29.4461 30.9302 29.4725 30.9082C31.5029 29.3396 32.9304 28.449 34.3369 28.449C35.8636 28.449 36.924 29.4223 38.5278 30.895L39.2145 31.5222C45.1206 36.8683 51.7299 42.2629 54.5903 44.0695C56.7717 45.4496 58.6258 45.6777 60.5757 44.7926C61.6736 44.1963 64.544 41.0294 66.0794 39.0806C67.3493 37.4745 67.2016 36.8462 66.4895 35.5841C65.7554 34.2735 62.2446 28.1558 59.7424 24.3265C58.8639 22.9872 58.1231 22.8747 57.4386 22.8747C57.0925 22.8747 56.7133 22.9177 56.3132 22.9629L56.1963 22.9761C54.0667 23.2153 52.1432 23.4127 50.1558 23.4127C46.8093 23.4127 43.4715 22.8351 38.9941 21.4814Z" fill="#E71316"/>
<path d="M56.3753 48.4876L53.0189 45.7749C50.2334 43.9373 44.7539 39.5017 39.4894 34.8369L38.4014 33.9572C37.3906 33.0412 36.3997 32.187 35.5267 31.4374C35.3051 31.2467 35.1078 31.0748 34.9006 30.8951C34.7341 30.8124 34.582 30.7694 34.4354 30.7529L34.431 30.7485C34.399 30.7452 34.3682 30.7375 34.3373 30.7375C33.7057 30.7375 32.6795 31.3206 30.9103 32.6874C30.8629 32.7282 29.7364 33.6784 28.5481 34.6175C27.8988 35.1279 27.2331 35.6349 26.7106 35.9899C25.8563 36.5708 24.5964 36.9158 23.3409 36.9158C21.7602 36.9158 20.3592 36.3679 19.3947 35.3737C18.3145 34.2582 17.7589 32.7734 17.8746 31.2996C17.9948 29.7851 18.816 28.3841 20.1872 27.3545C20.3063 27.2653 21.4031 26.4286 22.8217 25.3539L13.2528 23.3808C12.9992 23.3257 12.7578 23.2992 12.5208 23.2992C12.1593 23.2992 11.7283 23.3621 11.3061 23.5671C11.0283 23.8008 10.7528 24.1204 10.4695 24.5569C9.42121 26.1575 7.79093 28.5737 6.20143 30.9337L1.58395 38.2308C0.88951 39.5282 0.979899 40.2855 2.01054 41.401C3.03236 42.511 6.72722 46.2973 16.8131 54.8775C17.3775 54.9823 17.9397 55.1884 18.4666 55.4981C19.4807 56.0956 20.2776 56.995 20.7494 58.0367C21.4571 58.0764 22.1725 58.299 22.825 58.6848C23.7168 59.2073 24.4333 59.9811 24.9006 60.8762C24.9822 60.874 25.0638 60.8729 25.1431 60.874C25.8409 60.8905 26.5529 61.0966 27.2033 61.4802C28.7344 62.3819 29.6173 64.1952 29.5953 65.8166L33.1755 68.9978C33.6925 69.4564 34.3362 69.6835 34.9777 69.6835C35.7262 69.6835 36.4691 69.3748 37.0059 68.7719C37.9517 67.7082 37.8955 66.1109 36.9255 65.1012L32.6717 61.6908C32.179 61.2951 32.0997 60.5753 32.4943 60.0825C32.8889 59.5898 33.6065 59.5105 34.1036 59.904L41.0061 65.4374C41.3004 65.5278 41.6025 65.5785 41.9045 65.5785C42.8161 65.5785 43.7222 65.1773 44.3328 64.4079C45.1981 63.3188 45.1992 61.8374 44.4596 60.7461L38.6263 56.0691C38.1336 55.6745 38.0553 54.9525 38.4499 54.4598C38.8445 53.9682 39.5632 53.8888 40.0582 54.2834L47.5394 60.2809C47.9075 60.4276 48.2934 60.508 48.6814 60.508C49.594 60.508 50.4979 60.1068 51.1097 59.3363C52.0014 58.2131 51.9794 56.6688 51.1637 55.5709L43.2151 49.3099C42.718 48.9208 42.632 48.1999 43.0233 47.7039C43.4135 47.2089 44.1322 47.123 44.6293 47.5121L53.3584 54.3848C53.6472 54.4642 53.9437 54.5138 54.2413 54.5138C55.23 54.5138 56.21 54.0828 56.8791 53.2539C58.0563 51.7989 57.8303 49.6637 56.3753 48.4876Z" fill="#E71316"/>
<path d="M15.4122 62.433C15.9314 62.7383 16.499 62.9003 17.0535 62.9003C17.2662 62.9003 17.4746 62.875 17.673 62.8276L17.7182 62.8177L17.7314 62.8628C18.0003 63.8218 18.6507 64.6618 19.516 65.1688C20.0319 65.4753 20.5962 65.6351 21.1474 65.6351C21.5266 65.6351 21.8903 65.5557 22.1979 65.4025L22.2452 65.3794L22.2651 65.4312C22.5274 66.1587 22.9992 66.7264 23.6639 67.1188C24.0662 67.3547 24.5325 67.4792 25.0142 67.4792C25.1321 67.4936 25.2424 67.5013 25.3526 67.5013C26.3006 67.5013 27.1912 66.9722 27.5682 66.184C27.7435 65.8203 27.7898 65.4113 27.706 64.9693C27.4558 64.1646 26.9024 63.4636 26.1936 63.0447C25.7671 62.7934 25.3283 62.6611 24.8885 62.649H24.8466C24.4388 62.649 24.0618 62.7614 23.7499 62.9698L23.6881 63.0128L23.6749 62.9378C23.503 61.8532 22.7898 60.8214 21.8154 60.2471C21.3326 59.9627 20.8365 59.8161 20.3427 59.8051H20.2865C20.012 59.8051 19.7398 59.8514 19.4752 59.9451L19.4201 59.9649L19.4102 59.9065C19.2415 58.7634 18.4931 57.6722 17.4558 57.0626C17.2739 56.9535 17.0854 56.884 16.919 56.8212C16.4351 56.6592 15.9501 56.6129 15.518 56.69L15.4948 56.6945L15.4783 56.679C13.3178 54.8415 11.3447 53.1352 9.60864 51.6052L8.46887 55.1083C8.18448 55.9813 8.25833 56.9138 8.6761 57.7317C9.09277 58.5518 9.80374 59.1581 10.6779 59.4413C11.0218 59.5538 11.4384 59.6089 11.9113 59.6089C12.6752 59.6089 13.3707 59.4623 13.6232 59.3576L13.6838 59.3322L13.6904 59.3984C13.7951 60.7266 14.4389 61.8598 15.4122 62.433Z" fill="#E71316"/>
</g>
</g>
<defs>
<clipPath id="clip0_0_355">
<rect width="85.3333" height="85.3333" fill="white" transform="scale(1.0078)"/>
</clipPath>
</defs>
</svg>
