<svg width="27" height="27" viewBox="0 0 27 27" fill="none" xmlns="http://www.w3.org/2000/svg">
<mask id="mask0_3781_12112" style="mask-type:luminance" maskUnits="userSpaceOnUse" x="-4" y="-4" width="34" height="34">
<path d="M-3.04726 -3.2759H29.6698V29.4412H-3.04726V-3.2759Z" fill="white"/>
</mask>
<g mask="url(#mask0_3781_12112)">
<path d="M17.9802 25.7753L17.9056 25.762C16.7221 25.5519 15.3097 24.9972 15.2994 23.5382C15.2954 23.2474 15.2943 23.0398 15.2933 22.8911H8.10271V23.5423C8.10271 25.1179 6.47912 25.6137 5.48074 25.7737C5.13414 25.8305 4.99356 26.0646 5.00941 26.2579C5.02474 26.4496 5.19191 26.6433 5.53032 26.6433H17.9214C18.2598 26.6433 18.429 26.4526 18.4469 26.2645C18.4653 26.0692 18.3283 25.8417 17.9802 25.7753Z" fill="white"/>
<path d="M19.2295 -7.89787e-05C14.9441 -7.89787e-05 11.4582 2.52476 11.4582 5.6288C11.4582 6.86693 12.0108 8.04424 13.0557 9.03495C13.4232 9.38257 13.527 9.48072 12.4438 12.3148C15.8464 10.8416 16.0237 10.8416 16.195 10.8416H16.3013L16.4107 10.8712C17.3171 11.1294 18.2654 11.2597 19.2295 11.2597C23.5144 11.2597 26.9998 8.73385 26.9998 5.6288C26.9998 2.52476 23.5144 -7.89787e-05 19.2295 -7.89787e-05Z" fill="white"/>
<path d="M21.1092 17.9604C21.1092 18.1996 20.9134 18.3959 20.6736 18.3959H2.74568C2.50592 18.3959 2.31065 18.1996 2.31065 17.9604V7.85743C2.31065 7.61819 2.50592 7.4224 2.74568 7.4224H10.2251C10.0303 6.83911 9.92453 6.23691 9.92453 5.62858C9.92453 5.41848 9.94242 5.21195 9.96542 5.00644H2.17671C0.979468 5.00644 0 5.98591 0 7.18315V19.679C0 20.8763 0.979468 21.8558 2.17671 21.8558H21.2661C22.4628 21.8558 23.4423 20.8763 23.4423 19.679V12.0079C22.7138 12.2952 21.9327 12.5155 21.1092 12.6459V17.9604Z" fill="white"/>
</g>
</svg>
