<svg width="259" height="41" viewBox="0 0 259 41" fill="none" xmlns="http://www.w3.org/2000/svg">
<path d="M32.6476 7.31193H16.9824L12.5037 11.8046V17.0055H11.2121L8.01103 22.2202H12.5037V36.3925L17.7254 31.1708V22.2202H24.0651L27.0787 17.0055H17.7254V12.5267H29.6548L32.6476 7.31193Z" fill="#005DAA"/>
<path d="M2.49282 20.3592C2.49282 16.8242 3.54107 13.3686 5.50502 10.4293C7.46896 7.49006 10.2604 5.1992 13.5263 3.84641C16.7922 2.49362 20.386 2.13967 23.853 2.82932C27.3201 3.51896 30.5048 5.22123 33.0045 7.72085C35.5041 10.2205 37.2064 13.4052 37.896 16.8723C38.5857 20.3394 38.2317 23.9331 36.8789 27.199C35.5261 30.4649 33.2353 33.2564 30.296 35.2203C27.3568 37.1842 23.9011 38.2325 20.3661 38.2325C18.0187 38.2334 15.6941 37.7717 13.5252 36.8738C11.3563 35.9759 9.38563 34.6594 7.72576 32.9996C6.06588 31.3397 4.74938 29.369 3.85149 27.2001C2.95359 25.0312 2.49191 22.7066 2.49282 20.3592ZM20.3661 40.7184C24.3925 40.717 28.3281 39.5218 31.6752 37.2839C35.0223 35.0459 37.6307 31.8658 39.1706 28.1455C40.7105 24.4252 41.1127 20.3319 40.3263 16.3831C39.54 12.4342 37.6004 8.80721 34.7528 5.96062C31.9053 3.11403 28.2776 1.1757 24.3285 0.390698C20.3794 -0.394303 16.2862 0.00928155 12.5665 1.55042C8.84671 3.09157 5.66745 5.70106 3.43066 9.04896C1.19387 12.3969 2.34183e-07 16.3328 0 20.3592C-1.55537e-07 23.0334 0.526836 25.6814 1.55042 28.1519C2.57399 30.6225 4.07426 32.8671 5.96552 34.7578C7.85678 36.6484 10.102 38.1479 12.5729 39.1706C15.0438 40.1934 17.6919 40.7193 20.3661 40.7184Z" fill="#005DAA"/>
<path d="M83.7144 34.5593H87.9917V23.116C87.9917 20.2621 89.8318 18.0123 92.6857 18.0123C95.1994 18.0123 96.4007 19.3246 96.4701 22.366V34.5593H100.747V21.2134C100.747 16.8596 98.088 14.6098 93.887 14.6098C92.7306 14.5925 91.5889 14.8712 90.5705 15.4193C89.5521 15.9674 88.6907 16.7667 88.0681 17.7415H87.9917V7.67297L83.7144 9.86027V34.5593Z" fill="#005DAA"/>
<path d="M46.4982 18.3527H49.6854V34.5595H53.9628V18.3527H56.6292L57.6013 15.1655H53.9628V13.1726C53.9628 11.5616 54.9002 11.1519 56.0459 11.1519C56.715 11.1327 57.3835 11.2075 58.0318 11.3742V8.0203C57.0469 7.80694 56.0391 7.71829 55.0321 7.75644C52.2546 7.75644 49.6646 8.58275 49.6646 13.5337V15.1516H46.4982V18.3388V18.3527Z" fill="#005DAA"/>
<path d="M59.4626 34.5594H63.733V15.1654H59.4626V34.5594Z" fill="#005DAA"/>
<path d="M65.073 28.3307C65.1494 32.9067 68.7879 35.087 73.6625 35.087C77.6829 35.087 82.3353 33.3927 82.3353 28.782C82.3353 24.956 79.1828 23.8311 76.0859 23.1159C72.9889 22.4007 69.7878 22.1021 69.7878 20.0051C69.7878 18.3178 72.0723 18.0122 73.3083 18.0122C75.1901 18.0122 76.8774 18.5747 77.2524 20.6023H81.7173C81.1895 16.2902 77.551 14.6376 73.6139 14.6376C70.0864 14.6376 65.5105 15.9499 65.5105 20.1926C65.5105 24.1297 68.5866 25.2546 71.7599 25.9282C74.9332 26.6017 78.0093 26.9072 78.1065 29.157C78.2037 31.4068 75.4054 31.7054 73.7875 31.7054C71.503 31.7054 69.6212 30.8096 69.399 28.3307H65.073Z" fill="#005DAA"/>
<path d="M116.334 23.1576H106.377C106.488 20.262 108.516 18.0122 111.481 18.0122C114.446 18.0122 116.209 20.4495 116.341 23.1576H116.334ZM111.474 14.6376C105.696 14.6376 102.093 19.3663 102.093 24.8796C102.093 30.8444 105.509 35.087 111.585 35.087C115.827 35.087 119.424 32.7192 120.362 28.4835H116.313C115.563 30.6222 114.057 31.7054 111.585 31.7054C108.023 31.7054 106.37 29.0042 106.37 25.9698H120.612C121.306 20.1509 117.57 14.6376 111.46 14.6376H111.474Z" fill="#005DAA"/>
<path d="M121.996 34.559H126.273V25.3308C126.273 21.0534 128.599 18.6925 131.522 18.6925C132.139 18.7168 132.754 18.7794 133.363 18.88V14.7137C132.829 14.6359 132.291 14.5987 131.752 14.6026C129.12 14.6026 126.572 16.8177 126.085 18.88H126.009V15.1303H121.996V34.559Z" fill="#005DAA"/>
<path d="M65.0732 7.70771L63.7886 11.8184L59.4626 11.8115L60.7403 7.70771H65.0732Z" fill="#005DAA"/>
<path d="M153.047 20.7064C152.894 16.4638 149.79 14.4223 145.895 14.4223C142.423 14.4223 138.548 15.936 138.548 19.9079C138.548 23.2409 140.895 24.2964 143.999 25.1296L147.068 25.824C149.221 26.3587 151.339 27.1155 151.339 29.3862C151.339 32.1081 148.242 33.0941 146.006 33.0941C142.826 33.0941 140.451 31.4276 140.257 28.2335H137.868C138.25 32.9969 141.34 35.1217 145.895 35.1217C149.527 35.1217 153.728 33.4899 153.728 29.2542C153.728 25.8448 150.888 24.2616 148.172 23.845L144.992 23.1506C143.36 22.734 140.944 21.9771 140.944 19.8593C140.944 17.3248 143.437 16.4915 145.555 16.4915C148.284 16.4915 150.554 17.8178 150.665 20.7689L153.047 20.7064Z" fill="#58595B"/>
<path d="M171.641 21.123C171.113 16.6582 167.898 14.4223 163.732 14.4223C157.754 14.4223 154.504 19.151 154.504 24.7546C154.504 30.3583 157.754 35.1009 163.711 35.1009C168.065 35.1009 171.134 32.2192 171.773 27.5322H169.391C169.086 30.7818 166.662 33.0872 163.711 33.0872C159.135 33.0872 156.865 28.9209 156.865 24.7546C156.865 20.5884 159.135 16.4221 163.711 16.4221C166.815 16.4221 168.572 18.1997 169.266 21.1161L171.641 21.123Z" fill="#58595B"/>
<path d="M173.112 34.5177H175.494V14.9917H173.112V34.5177Z" fill="#58595B"/>
<path d="M191.831 23.3937H179.193C179.568 19.8315 181.728 16.4499 185.623 16.4499C189.519 16.4499 191.72 19.8176 191.831 23.3937ZM185.623 14.4223C179.422 14.4223 176.812 19.6093 176.812 24.7546C176.812 30.3097 179.422 35.087 185.623 35.087C190.546 35.087 193.116 32.5109 194.143 28.0807H191.782C191.025 31.0388 189.137 33.0802 185.651 33.0802C181.075 33.0802 179.256 28.8793 179.221 25.3935H194.247C194.435 19.9079 191.935 14.4223 185.651 14.4223H185.623Z" fill="#58595B"/>
<path d="M195.538 34.5176H197.92V23.1229C197.996 19.3038 200.267 16.429 204.051 16.429C207.836 16.429 209.009 18.9635 209.009 22.3313V34.5176H211.391V21.9563C211.391 17.297 209.724 14.4223 204.239 14.4223C201.461 14.4223 198.864 16.0124 197.989 18.3594H197.913V14.9639H195.531V34.5176H195.538Z" fill="#58595B"/>
<path d="M215.187 11.256V14.9639H211.785V16.9707H215.187V30.3514C215.187 33.6844 216.249 34.7468 219.43 34.7468C220.124 34.7468 220.818 34.6704 221.548 34.6704V32.622C220.87 32.6994 220.188 32.7388 219.506 32.74C217.798 32.622 217.569 31.7193 217.569 30.1639V16.9707H221.548V14.9639H217.569V10.0061L215.187 11.256Z" fill="#58595B"/>
<path d="M222.941 34.5177H225.33V14.9917H222.941V34.5177Z" fill="#58595B"/>
<path d="M237.74 34.5177H240.129V14.9917H237.74V34.5177Z" fill="#58595B"/>
<path d="M230.059 34.5174H232.441V16.9982H236.302V14.9637H232.441V13.2903C232.483 11.1655 232.406 9.5059 235.052 9.5059C235.638 9.5139 236.221 9.57667 236.795 9.69338V7.65191C236.131 7.54523 235.46 7.49414 234.788 7.49914C230.969 7.49914 230.018 9.84614 230.059 13.2139V14.9637H226.726V16.9705H230.059V34.5174Z" fill="#58595B"/>
<path d="M258.854 21.123C258.319 16.6582 255.104 14.4223 250.945 14.4223C244.967 14.4223 241.71 19.151 241.71 24.7546C241.71 30.3583 244.967 35.1009 250.945 35.1009C255.292 35.1009 258.361 32.2192 259 27.5322H256.618C256.32 30.7818 253.896 33.0872 250.945 33.0872C246.362 33.0872 244.092 28.9209 244.092 24.7546C244.092 20.5884 246.362 16.4221 250.945 16.4221C254.049 16.4221 255.806 18.1997 256.5 21.1161L258.854 21.123Z" fill="#58595B"/>
<path d="M241.299 7.4993L240.118 11.2837H237.757L238.938 7.4993H241.299Z" fill="#58595B"/>
<path d="M226.49 7.4993L225.302 11.2837H222.941L224.122 7.4993H226.49Z" fill="#58595B"/>
<path d="M176.652 7.4993L175.465 11.2837H173.104L174.285 7.4993H176.652Z" fill="#58595B"/>
</svg>
