<svg width="16" height="16" viewBox="0 0 16 16" fill="none" xmlns="http://www.w3.org/2000/svg">
<path fill-rule="evenodd" clip-rule="evenodd" d="M11.4601 10.3185L15.7639 14.6223C15.9152 14.7737 16.0001 14.979 16 15.193C16 15.407 15.9149 15.6122 15.7635 15.7635C15.6121 15.9148 15.4068 15.9997 15.1928 15.9996C14.9788 15.9996 14.7736 15.9145 14.6223 15.7631L10.3185 11.4593C9.03196 12.4558 7.41409 12.9247 5.79404 12.7707C4.17399 12.6167 2.67346 11.8513 1.59771 10.6302C0.521958 9.40913 -0.0482099 7.8241 0.00319692 6.19756C0.0546037 4.57102 0.723724 3.02515 1.87444 1.87444C3.02515 0.723724 4.57102 0.0546037 6.19756 0.00319692C7.8241 -0.0482099 9.40913 0.521958 10.6302 1.59771C11.8513 2.67346 12.6167 4.17399 12.7707 5.79404C12.9247 7.41409 12.4558 9.03196 11.4593 10.3185H11.4601ZM6.40031 11.1993C7.67329 11.1993 8.89414 10.6936 9.79427 9.79347C10.6944 8.89334 11.2001 7.67249 11.2001 6.39951C11.2001 5.12653 10.6944 3.90568 9.79427 3.00555C8.89414 2.10541 7.67329 1.59972 6.40031 1.59972C5.12733 1.59972 3.90648 2.10541 3.00635 3.00555C2.10621 3.90568 1.60052 5.12653 1.60052 6.39951C1.60052 7.67249 2.10621 8.89334 3.00635 9.79347C3.90648 10.6936 5.12733 11.1993 6.40031 11.1993Z" fill="#222222"/>
</svg>
