<svg width="30" height="26" viewBox="0 0 30 26" fill="none" xmlns="http://www.w3.org/2000/svg">
<mask id="mask0_3781_12140" style="mask-type:luminance" maskUnits="userSpaceOnUse" x="-2" y="-4" width="34" height="34">
<path d="M-1.27916 -3.43973H31.5699V29.4093H-1.27916V-3.43973Z" fill="white"/>
</mask>
<g mask="url(#mask0_3781_12140)">
<path d="M1.97915 18.3215H28.0202V2.19516H1.97915V18.3215ZM29.9994 1.17119V19.3444C29.9994 19.9906 29.4743 20.5172 28.8276 20.5172H1.1723C0.526611 20.5172 0 19.9906 0 19.3444V1.17119C0 0.526018 0.526611 -8.02761e-05 1.1723 -8.02761e-05H28.8276C29.4743 -8.02761e-05 29.9994 0.526018 29.9994 1.17119ZM18.6449 22.4456C18.8256 23.2627 19.1664 24.0983 19.7346 24.6018C20.1149 24.9395 20.5871 25.153 21.2472 25.1541V25.7844H8.75119V25.1541C9.41279 25.153 9.88397 24.9395 10.2643 24.6033C10.6426 24.2661 10.9223 23.7862 11.1184 23.256C11.3155 22.7309 11.4268 22.1612 11.4884 21.6597H18.5109C18.5422 21.9092 18.5849 22.1746 18.6449 22.4456Z" fill="white"/>
<path d="M15.2139 13.8866C14.8577 13.7654 14.5221 13.5288 14.1037 13.0972C13.8394 12.8174 13.7203 12.6732 13.4868 12.317L13.2528 12.0173L13.0613 12.3617C12.6938 13.0222 12.2093 13.7629 11.9265 14.1797L11.8171 14.3311L11.9362 14.4732C12.1102 14.6852 12.3956 14.949 12.8011 15.3104C13.3349 15.7728 13.9667 16.2245 14.9938 16.3888C15.1626 16.4154 15.3089 16.4283 15.4388 16.4283C15.8211 16.4283 16.2933 16.2871 16.338 15.6189C16.3421 15.549 16.3508 15.102 16.3508 15.0076C16.3508 14.3916 15.9864 14.1555 15.2139 13.8866Z" fill="white"/>
<path d="M12.448 11.6016C12.7175 11.1212 12.9746 10.6664 13.2395 10.2543L13.2954 10.1727C13.4258 9.97454 13.5613 9.77744 13.7404 9.53878C13.8302 9.42586 14.15 8.9865 14.15 8.98394C14.5339 8.59539 14.8527 8.43577 15.2176 8.31412C16.0024 8.04004 16.3499 7.81523 16.3499 7.19418C16.3499 7.08382 16.3411 6.65371 16.3386 6.59109C16.3021 6.04497 15.9983 5.7673 15.4383 5.7673C15.3105 5.7673 15.1652 5.78577 15.001 5.814C14.0571 5.95567 13.0116 6.51153 12.3315 7.22446C12.1662 7.4041 11.5513 8.15296 11.5221 8.19197C11.0273 8.83817 10.6408 9.53878 10.2682 10.2178L9.88117 10.9087C9.66457 11.29 9.46029 11.6519 9.24318 11.9948C8.81871 12.6892 8.4158 13.1984 8.04214 13.5048C7.65668 13.8174 7.36052 13.9385 6.95248 13.9436C6.41252 13.9411 6.00755 13.7168 5.4599 13.1183C5.20327 12.836 5.00001 12.5393 4.87478 12.3433L4.65972 12.0066L4.40873 12.4557C4.12797 12.9566 3.29854 14.2131 3.28981 14.2254L3.19588 14.365L3.29854 14.5031C3.3863 14.6181 3.64037 14.9281 4.08229 15.2935C4.89428 15.9839 5.90439 16.3611 6.92835 16.3611H6.96736C8.6442 16.3611 9.80521 15.4275 10.4796 14.6468C11.2531 13.763 11.8475 12.6892 12.3705 11.7448L12.448 11.6016Z" fill="white"/>
<path d="M4.65442 10.2122C5.08454 9.51464 5.49054 9.00445 5.85341 8.70162C6.2399 8.38596 6.53914 8.2674 6.95026 8.26586C7.49433 8.2674 7.89878 8.49221 8.4336 9.08503C8.68459 9.36168 8.87912 9.64552 9.05106 9.90934L9.28819 10.2045L9.54072 9.75228C9.83995 9.21797 10.2105 8.55072 10.5826 8.01333L10.6909 7.82702L10.5955 7.69921C10.3922 7.43078 10.1525 7.18954 9.81788 6.91289C9.00846 6.22922 8.004 5.84838 6.93795 5.84838C5.26008 5.84838 4.09753 6.77944 3.41643 7.55909C2.6532 8.43011 2.03164 9.54749 1.49168 10.5181L1.49271 14.9717C1.59844 14.8711 1.69647 14.772 1.78629 14.674C2.67373 13.728 3.29684 12.6045 3.91891 11.4779C4.16682 11.0313 4.40652 10.6074 4.65442 10.2122Z" fill="white"/>
<path d="M19.4743 10.59C19.4743 11.6637 18.6044 12.5317 17.5327 12.5317C16.4599 12.5317 15.5905 11.6637 15.5905 10.59C15.5905 9.51725 16.4599 8.64778 17.5327 8.64778C18.6044 8.64778 19.4743 9.51725 19.4743 10.59Z" fill="white"/>
<path d="M27.5149 6.79725C27.5149 7.72472 26.763 8.47666 25.836 8.47666C24.9075 8.47666 24.1556 7.72472 24.1556 6.79725C24.1556 5.86927 24.9075 5.11785 25.836 5.11785C26.763 5.11785 27.5149 5.86927 27.5149 6.79725Z" fill="white"/>
<path d="M23.3683 8.64725C23.3683 9.45872 22.7103 10.1157 21.8994 10.1157C21.0874 10.1157 20.4304 9.45872 20.4304 8.64725C20.4304 7.8368 21.0874 7.17879 21.8994 7.17879C22.7103 7.17879 23.3683 7.8368 23.3683 8.64725Z" fill="white"/>
<path d="M24.0433 16.2019C24.0433 15.2745 24.7963 14.523 25.7232 14.523C26.6507 14.523 27.4026 15.2745 27.4026 16.2019C27.4026 17.1304 26.6507 17.8819 25.7232 17.8819C24.7963 17.8819 24.0433 17.1304 24.0433 16.2019Z" fill="white"/>
<path d="M16.8135 14.2066C16.8135 13.8119 17.1332 13.4916 17.5285 13.4916C17.9221 13.4916 18.2429 13.8119 18.2429 14.2066C18.2429 14.6008 17.9221 14.9216 17.5285 14.9216C17.1332 14.9216 16.8135 14.6008 16.8135 14.2066Z" fill="white"/>
<path d="M19.3317 14.3525C19.3317 13.2798 20.2006 12.4098 21.2734 12.4098C22.3461 12.4098 23.2156 13.2798 23.2156 14.3525C23.2156 15.4247 22.3461 16.2942 21.2734 16.2942C20.2006 16.2942 19.3317 15.4247 19.3317 14.3525Z" fill="white"/>
</g>
</svg>
