<svg width="16" height="13" viewBox="0 0 16 13" fill="none" xmlns="http://www.w3.org/2000/svg">
<path fill-rule="evenodd" clip-rule="evenodd" d="M5.032 12.7998C11.0696 12.7998 14.372 7.87469 14.372 3.60413C14.372 3.46393 14.372 3.32479 14.3624 3.18616C15.0048 2.72933 15.5592 2.16213 16 1.51312C15.4016 1.77461 14.7656 1.9461 14.1152 2.02171C14.8 1.61766 15.3128 0.98286 15.5584 0.23382C14.9136 0.610308 14.2088 0.876018 13.4736 1.01859C12.2304 -0.28259 10.1512 -0.345632 8.8288 0.878352C7.9768 1.66756 7.6144 2.84426 7.8792 3.96663C5.24 3.83589 2.7808 2.60877 1.1136 0.59007C0.2424 2.06688 0.688 3.95543 2.1304 4.90374C1.608 4.88877 1.0968 4.7503 0.64 4.49984V4.54085C0.6408 6.07911 1.7424 7.40362 3.2736 7.70843C2.7904 7.83839 2.2832 7.85724 1.792 7.76351C2.2216 9.08044 3.4544 9.98244 4.8584 10.0084C3.696 10.9079 2.26 11.3963 0.7816 11.3948C0.5208 11.394 0.26 11.379 0 11.3483C1.5016 12.2966 3.248 12.7999 5.032 12.7975" fill="#00677F"/>
</svg>
