<svg width="1440" height="80" viewBox="0 0 1440 80" fill="none" xmlns="http://www.w3.org/2000/svg">
<rect width="1440" height="80" fill="white"/>
<path fill-rule="evenodd" clip-rule="evenodd" d="M36.7665 29.3V26.6H24.5332V29.3333H28.7332V41.1667H32.5332V29.3H36.7665ZM83.8332 41.1333C83.7332 40.1667 83.6665 39.4333 83.6665 38.9V34C83.6665 31.9667 82.1665 30.7 80.1999 30.7C78.7665 30.7333 77.5332 31.3667 76.8332 32.5C76.3999 31.3667 75.1665 30.7667 73.9999 30.7667C72.5999 30.7667 71.3999 31.2333 70.7332 32.5L70.6665 31H67.1999V41.1333H70.7999V35C70.7999 34.6667 70.6665 32.9333 72.2999 32.9333C73.3999 32.9333 73.6665 33.9333 73.6665 34.9V41.1H77.2332V35C77.2332 34.6667 77.0999 32.9333 78.7332 32.9333C79.8332 32.9333 80.0999 33.9333 80.0999 34.9V41.1L83.8332 41.1333ZM66.3999 33.9667V30.8667C64.8332 30.8333 63.6665 31.3667 63.1999 32.9L63.1332 30.9667H59.5332C59.5999 31.8 59.5999 32.9 59.5999 33.5667V41.1H63.1999V36.6667C63.1999 35 63.6999 33.9667 65.6665 33.9333C65.8999 33.9333 66.1332 33.9333 66.3999 33.9667ZM90.0332 30.7C86.7332 30.7 84.5665 32.5333 84.5665 36.0333C84.5665 39.6333 86.7332 41.4 90.0332 41.4C93.3332 41.4 95.4999 39.6 95.4999 36.0333C95.4665 32.5333 93.2999 30.7 90.0332 30.7ZM90.0332 32.8333C91.5332 32.8333 91.8332 34.4 91.8332 35.9667C91.8332 37.8333 91.4999 39.2667 90.0332 39.2667C88.5665 39.2667 88.2332 37.8 88.2332 35.9667C88.2332 34.3667 88.4999 32.8 90.0332 32.8333ZM47.7665 41.1333C47.6665 40.1667 47.6332 39.4667 47.6332 38.9V34C47.6332 31.9667 46.1332 30.7 44.1332 30.7C43.5332 30.7 42.9332 30.8 42.4332 31.0333C41.9665 31.2667 41.5332 31.5667 41.1332 32.0667V26.6H37.5999V41.1333H41.1999V35C41.1999 34.6667 41.0665 32.9333 42.6999 32.9333C43.8332 32.9333 44.0665 33.9333 44.0665 34.9V41.1L47.7665 41.1333ZM58.7332 36.7333C58.7665 33.1 57.6665 30.7 53.5999 30.7C50.3999 30.7 48.4665 32.6667 48.4665 35.7667C48.4665 39.5667 49.8332 41.4 53.7665 41.4C54.9999 41.4 56.0999 41.1333 56.8999 40.5667C57.7999 39.9667 58.4999 39.0667 58.5999 37.8H55.2665C55.1665 38.7333 54.6332 39.3667 53.5665 39.3667C52.1999 39.3667 51.8999 38.0667 51.9332 36.8H58.7332V36.7333ZM55.2999 34.8H51.9665C52.0332 33.7333 52.2999 32.6333 53.6332 32.5667C54.2332 32.5333 54.6332 32.8333 54.8999 33.2667C55.1999 33.7 55.2999 34.2667 55.2999 34.8Z" fill="#EE3134"/>
<path fill-rule="evenodd" clip-rule="evenodd" d="M151.533 33.7667V30.6667C149.966 30.6333 148.8 31.1667 148.333 32.7L148.266 30.9333H144.666C144.733 31.7667 144.733 32.8667 144.733 33.5333V41.0667H148.333V36.6667C148.333 35 148.833 33.8 150.8 33.7333C151.033 33.7667 151.266 33.7667 151.533 33.7667ZM132.9 41.1333C132.8 40.1667 132.766 39.4667 132.766 38.9V34C132.766 31.9667 131.266 30.7 129.266 30.7C128.666 30.7 128.133 30.8 127.6 31.0333C127.133 31.2667 126.666 31.5667 126.266 32.0667V26.6H122.666V41.1333H126.266V35C126.266 34.6667 126.133 32.9333 127.766 32.9333C128.9 32.9333 129.133 33.9333 129.133 34.9V41.1L132.9 41.1333ZM121.8 38.1C121.8 36.5333 120.966 35.7667 119.833 35.3333C117.666 34.5667 116.066 34.5333 116.066 33.7333C116.066 33.1333 116.4 32.8 117 32.8C117.466 32.8 117.766 32.9333 117.966 33.1333C118.133 33.3333 118.233 33.6667 118.233 34.1H121.633C121.566 31.4333 119.466 30.7333 117.166 30.7333C115.2 30.7333 112.666 31.4333 112.666 33.8667C112.666 37.4 118.4 36.5 118.4 38.3667C118.4 39.0333 117.866 39.3333 117.166 39.3333C116.766 39.3333 116.433 39.1333 116.233 38.8333C116.033 38.5667 115.966 38.2 116 37.8333H112.566C112.5 40.8667 114.733 41.4 117.233 41.4C119.566 41.4 121.8 40.5667 121.8 38.1ZM143.833 36.7333C143.866 33.1 142.766 30.7 138.7 30.7C135.5 30.7 133.566 32.6667 133.566 35.7667C133.566 39.5667 134.9 41.4 138.866 41.4C140.1 41.4 141.2 41.1333 142 40.5667C142.9 39.9667 143.6 39.0667 143.7 37.8H140.333C140.233 38.7333 139.7 39.3667 138.633 39.3667C137.266 39.3667 136.966 38.0667 137 36.8H143.866V36.7333H143.833ZM140.466 34.8H137.133C137.2 33.7333 137.466 32.6333 138.8 32.5667C139.4 32.5333 139.8 32.8333 140.066 33.2667C140.333 33.7 140.466 34.2667 140.466 34.8ZM111.7 41.1333V30.9667H108.1V41.1L111.7 41.1333ZM107 29.2333L107.833 26.5667H98.1997V41.1H102V35.4H105.066L105.9 32.7333H102V29.2333H107ZM111.7 29.2333L112.566 26.5667H109.033L108.166 29.2333H111.7Z" fill="#EE3134"/>
<path fill-rule="evenodd" clip-rule="evenodd" d="M57.4001 53.6V45.4H58.7001V53.6334H57.4001V53.6ZM145.867 53.7334C143.133 53.7334 141.067 52.2 141.067 49.5334C141.067 46.8334 143.367 45.1667 145.967 45.1667C146.9 45.1667 147.9 45.4667 148.567 45.9L147.9 46.7C147.333 46.3667 146.7 46.1667 146 46.1667C145 46.1667 144.033 46.4667 143.4 47.1667C142.867 47.7667 142.567 48.5 142.567 49.5667C142.567 50.7334 142.933 51.3667 143.533 51.9667C144.167 52.6 145.133 52.7667 146.067 52.7667C146.833 52.7667 147.567 52.5 148.167 52.1667L148.8 52.9334C148.1 53.4 146.967 53.7334 145.867 53.7334ZM132.067 53.6V45.4H133.367V53.6334H132.067V53.6ZM102.333 46.3667H99.2667V53.6334H98.0001V46.3667H94.9334V45.3667H102.5L102.333 46.3667ZM33.9001 53.3C33.2667 53.6 32.5001 53.7667 31.5667 53.7667C30.4001 53.7667 29.2001 53.5 28.2334 53.0334L28.7667 52.1C29.7334 52.5667 30.6334 52.8 31.6334 52.8C32.3001 52.8 32.7334 52.7 33.1334 52.4667C33.6001 52.2 33.8667 51.8667 33.8667 51.4C33.8667 50.7 33.3334 50.2667 32.0667 50L30.7334 49.7C29.4001 49.4 28.5667 48.5667 28.5667 47.5667C28.5667 46.1667 29.9334 45.1667 31.9334 45.1667C33.1001 45.1667 34.3001 45.4667 35.1001 45.9667L34.5001 46.8334C33.7001 46.4 32.8667 46.1667 32.0001 46.1667C30.8334 46.1667 30.0001 46.6334 30.0001 47.4C30.0001 48 30.5001 48.3667 31.6334 48.6334L32.8667 48.9334C33.5667 49.1 34.3001 49.4 34.7001 49.7667C35.1001 50.1334 35.3334 50.7 35.3334 51.2334C35.3667 52.0667 34.8334 52.8667 33.9001 53.3ZM86.6667 53.6L83.4001 49.2C82.8001 48.3667 81.7334 46.7667 81.7334 46.7667C81.7334 46.7667 81.8334 48.1667 81.8667 49.3667L81.9001 53.6H80.6001V45.4H82.1667L85.4667 49.9C86.1001 50.7667 87.0001 52.1667 87.0001 52.1667C87.0001 52.1667 86.8001 50.6334 86.8001 49.5667L86.7667 45.4334H88.0667V53.6667L86.6667 53.6ZM109.233 53.6V45.4H110.533V53.6334H109.233V53.6ZM124.867 46.3667H120.333V48.8H124.167V49.7667H120.333V53.6334H119.033V45.4H125.033L124.867 46.3667ZM67.2334 53.6V45.4H73.3334L73.1667 46.4H68.5667V48.8667H72.4667V49.8667H68.5667V52.6667H73.4667V53.6667H67.2334V53.6ZM47.2334 53.7334C44.5001 53.7334 42.4334 52.2 42.4334 49.5334C42.4334 46.8334 44.7334 45.1667 47.3334 45.1667C48.2667 45.1667 49.2667 45.4667 49.9334 45.9L49.2667 46.7C48.7001 46.3667 48.0667 46.1667 47.3667 46.1667C46.3667 46.1667 45.4001 46.4667 44.7334 47.1667C44.2001 47.7667 43.9001 48.5 43.9001 49.5667C43.9001 50.7334 44.2667 51.3667 44.8667 51.9667C45.5001 52.6 46.4667 52.7667 47.4001 52.7667C48.1667 52.7667 48.9001 52.5 49.5001 52.1667L50.1334 52.9334C49.4667 53.4 48.3334 53.7334 47.2334 53.7334Z" fill="black"/>
<path fill-rule="evenodd" clip-rule="evenodd" d="M1227.46 42.3188L1231.76 46.6227C1231.92 46.7741 1232 46.9793 1232 47.1933C1232 47.4074 1231.92 47.6126 1231.76 47.7639C1231.61 47.9151 1231.41 48.0001 1231.19 48C1230.98 47.9999 1230.77 47.9148 1230.62 47.7635L1226.32 43.4595C1225.03 44.4561 1223.41 44.925 1221.79 44.771C1220.17 44.617 1218.67 43.8516 1217.6 42.6305C1216.52 41.4093 1215.95 39.8243 1216 38.1977C1216.05 36.5711 1216.72 35.0252 1217.87 33.8745C1219.03 32.7237 1220.57 32.0546 1222.2 32.0032C1223.82 31.9518 1225.41 32.522 1226.63 33.5977C1227.85 34.6735 1228.62 36.1741 1228.77 37.7942C1228.93 39.4143 1228.46 41.0322 1227.46 42.3188H1227.46ZM1222.4 43.1996C1223.67 43.1996 1224.89 42.6939 1225.79 41.7937C1226.69 40.8935 1227.2 39.6727 1227.2 38.3997C1227.2 37.1266 1226.69 35.9058 1225.79 35.0056C1224.89 34.1055 1223.67 33.5998 1222.4 33.5998C1221.13 33.5998 1219.91 34.1055 1219.01 35.0056C1218.11 35.9058 1217.6 37.1266 1217.6 38.3997C1217.6 39.6727 1218.11 40.8935 1219.01 41.7937C1219.91 42.6939 1221.13 43.1996 1222.4 43.1996Z" fill="#222222"/>
</svg>
